<?xml version="1.0" encoding="UTF-8" standalone="no"?>
<svg
   xmlns:dc="http://purl.org/dc/elements/1.1/"
   xmlns:cc="http://creativecommons.org/ns#"
   xmlns:rdf="http://www.w3.org/1999/02/22-rdf-syntax-ns#"
   xmlns:svg="http://www.w3.org/2000/svg"
   xmlns="http://www.w3.org/2000/svg"
   viewBox="0 0 718.66669 761.33331"
   height="761.33331"
   width="718.66669"
   xml:space="preserve"
   id="svg2"
   version="1.1"><metadata
     id="metadata8"><rdf:RDF><cc:Work
         rdf:about=""><dc:format>image/svg+xml</dc:format><dc:type
           rdf:resource="http://purl.org/dc/dcmitype/StillImage" /></cc:Work></rdf:RDF></metadata><defs
     id="defs6"><clipPath
       id="clipPath20"
       clipPathUnits="userSpaceOnUse"><path
         style="clip-rule:evenodd"
         id="path18"
         d="M 4.74609,5709.36 H 5389.28 V 2043.55 H 4.74609 Z" /></clipPath><radialGradient
       id="radialGradient26"
       gradientTransform="matrix(10,0,0,10,-310,-2410)"
       gradientUnits="userSpaceOnUse"
       r="0"
       cy="628.64502"
       cx="300.70099"
       fy="628.64502"
       fx="300.70099"><stop
         id="stop22"
         offset="0"
         style="stop-opacity:1;stop-color:#eae9e6" /><stop
         id="stop24"
         offset="1"
         style="stop-opacity:1;stop-color:#ffffff" /></radialGradient></defs><g
     transform="matrix(1.3333333,0,0,-1.3333333,0,761.33333)"
     id="g10"><g
       transform="scale(0.1)"
       id="g12"><g
         id="g14"><g
           clip-path="url(#clipPath20)"
           id="g16"><path
             id="path28"
             style="fill:url(#radialGradient26);fill-opacity:1;fill-rule:nonzero;stroke:none"
             d="M 4.74609,5709.36 H 5389.28 V 2043.55 H 4.74609 v 3665.81" /></g></g><path
         id="path30"
         style="fill:#2e3596;fill-opacity:1;fill-rule:evenodd;stroke:none"
         d="m 1580.92,5153.24 h 240.85 v -240.85 h -240.85 v 240.85" /><path
         id="path32"
         style="fill:#2e3596;fill-opacity:1;fill-rule:nonzero;stroke:none"
         d="m 1902.53,4915.87 h 69.54 v 240.18 h -69.54 z m 105.98,84.26 c 0,-13.99 1.46,-26.04 4.39,-36.05 2.92,-10.01 7.15,-18.3 12.74,-24.94 5.58,-6.57 12.47,-11.77 20.56,-15.59 8.09,-3.81 17.39,-6.47 27.77,-8.07 10.44,-1.55 21.93,-2.32 34.46,-2.26 h 83.64 c 15.65,-0.06 29.54,0.21 41.76,0.88 12.16,0.72 22.66,2.27 31.53,4.7 8.87,2.43 16.18,6.25 21.93,11.5 5.73,5.2 10.02,12.27 12.78,21.23 2.77,8.96 4.13,20.29 4.13,34.01 v 68.34 h -155.99 v -49.77 h 86.45 v -6.96 c -0.05,-5.76 -1.09,-10.4 -3.13,-13.88 -2.03,-3.54 -4.75,-6.14 -8.19,-7.97 -3.45,-1.76 -7.37,-2.92 -11.64,-3.53 -4.34,-0.61 -8.77,-0.89 -13.37,-0.83 h -74.24 c -8.71,-0.06 -15.97,0.61 -21.71,2.04 -5.75,1.44 -10.24,3.93 -13.53,7.58 -3.28,3.65 -5.58,8.73 -6.94,15.32 -1.36,6.52 -2.03,14.92 -1.98,25.15 v 29.86 c -0.05,10.23 0.62,18.63 1.98,25.22 1.36,6.52 3.66,11.6 6.94,15.26 3.29,3.64 7.78,6.13 13.53,7.57 5.74,1.44 13,2.1 21.71,2.04 h 75.49 c 5.59,0.06 10.55,-0.22 14.88,-0.82 4.33,-0.61 7.99,-1.83 11.01,-3.66 2.98,-1.82 5.28,-4.53 6.84,-8.12 1.57,-3.59 2.35,-8.35 2.35,-14.27 h 68.29 v 7.63 c 0.1,9.4 -0.52,18.03 -1.78,25.99 -1.25,7.91 -3.6,15.04 -7.15,21.34 -3.5,6.25 -8.56,11.61 -15.24,16.04 -6.64,4.42 -15.35,7.74 -26.06,10.11 -10.75,2.33 -23.96,3.49 -39.67,3.49 h -104.62 c -12.53,0.06 -24.02,-0.72 -34.46,-2.27 -10.38,-1.6 -19.68,-4.26 -27.77,-8.07 -8.09,-3.82 -14.98,-9.01 -20.56,-15.6 -5.59,-6.63 -9.82,-14.92 -12.74,-24.93 -2.93,-10.01 -4.39,-22 -4.39,-36.05 z m 397.92,96.21 h 108.68 c 7.31,0.11 13.32,-0.5 18.07,-1.82 4.69,-1.28 8.19,-3.76 10.49,-7.42 2.3,-3.64 3.39,-8.95 3.39,-15.97 v -7.97 c 0.05,-5.75 -0.78,-10.45 -2.45,-14.21 -1.72,-3.7 -4.44,-6.47 -8.2,-8.29 -3.81,-1.82 -8.77,-2.71 -15.03,-2.71 h -114.95 z m -69.55,-180.47 h 69.55 v 62.36 h 109.31 c 7.15,0.06 12.84,-0.99 17.02,-3.09 4.17,-2.1 7.15,-5.59 8.92,-10.5 1.78,-4.93 2.61,-11.56 2.56,-19.91 v -28.86 h 69.54 v 40.81 c -0.05,9.78 -1.05,17.91 -3.03,24.38 -1.93,6.46 -4.7,11.61 -8.14,15.48 -3.5,3.87 -7.52,6.8 -12.06,8.79 -4.6,2.04 -9.45,3.48 -14.67,4.42 v 0.67 c 7.93,1.99 14.46,4.7 19.58,8.07 5.06,3.37 9.03,7.52 11.85,12.39 2.76,4.86 4.75,10.5 5.84,16.91 1.1,6.42 1.62,13.66 1.57,21.68 v 15.26 c 0.05,10.83 -0.94,20.63 -3.08,29.36 -2.14,8.73 -5.74,16.2 -10.81,22.5 -5.12,6.25 -12.06,11.06 -20.88,14.38 -8.77,3.37 -19.88,5.03 -33.2,5.08 h -209.87 v -240.18" /><path
         id="path34"
         style="fill:#373f3f;fill-opacity:1;fill-rule:nonzero;stroke:none"
         d="m 2678.47,4949.94 c -0.03,-6.71 0.8,-12.39 2.5,-16.96 1.67,-4.6 4.33,-8.28 8.02,-11.03 3.65,-2.78 8.47,-4.78 14.4,-6 5.94,-1.21 13.15,-1.82 21.66,-1.78 h 35.02 c 8.41,0 15.63,0.32 21.66,1 6.02,0.71 11.03,1.85 15.04,3.49 4.01,1.61 7.18,3.82 9.5,6.61 2.3,2.78 3.97,6.25 4.93,10.43 0.97,4.17 1.45,9.13 1.41,14.88 0.07,3.93 -0.19,7.68 -0.7,11.24 -0.52,3.54 -1.61,6.86 -3.27,9.86 -1.7,3 -4.27,5.6 -7.7,7.82 -3.47,2.24 -8.08,3.96 -13.92,5.21 -5.81,1.21 -13.13,1.82 -21.94,1.85 h -25.6 c -4.78,0 -8.63,0.11 -11.58,0.36 -2.95,0.22 -5.16,0.57 -6.7,1.11 -1.54,0.49 -2.57,1.14 -3.11,1.96 -0.52,0.82 -0.78,1.82 -0.75,3 -0.03,1.86 0.29,3.36 0.96,4.43 0.68,1.1 1.93,1.92 3.73,2.46 1.83,0.53 4.4,0.89 7.73,1.03 3.37,0.18 7.7,0.25 12.99,0.22 5.48,0 9.95,-0.07 13.38,-0.25 3.43,-0.22 6.06,-0.57 7.95,-1.07 1.89,-0.54 3.31,-1.29 4.21,-2.29 0.89,-1 1.57,-2.28 1.98,-3.89 h 36.96 c -0.04,5.14 -0.52,9.57 -1.44,13.32 -0.94,3.75 -2.61,6.93 -4.95,9.46 -2.34,2.57 -5.64,4.61 -9.91,6.14 -4.23,1.53 -9.72,2.64 -16.39,3.28 -6.7,0.68 -14.85,1 -24.47,1 h -25.79 c -6.39,0.04 -12.32,-0.28 -17.74,-1.07 -5.45,-0.75 -10.24,-2.21 -14.31,-4.35 -4.07,-2.18 -7.25,-5.33 -9.53,-9.5 -2.27,-4.14 -3.43,-9.61 -3.46,-16.35 -0.03,-7.46 0.67,-13.67 2.15,-18.63 1.44,-4.97 3.88,-8.93 7.25,-11.82 3.4,-2.9 7.99,-4.96 13.73,-6.21 5.77,-1.25 12.96,-1.86 21.52,-1.89 h 34.64 c 4.33,0 7.64,-0.29 9.98,-0.9 2.31,-0.6 3.91,-1.57 4.78,-2.92 0.86,-1.32 1.28,-3.04 1.22,-5.18 0.03,-1.64 -0.3,-3 -0.97,-4.07 -0.66,-1.07 -1.79,-1.89 -3.43,-2.49 -1.63,-0.58 -3.88,-1.01 -6.73,-1.25 -2.86,-0.22 -6.45,-0.33 -10.81,-0.33 h -13.09 c -5.19,0 -9.34,0.25 -12.41,0.72 -3.11,0.5 -5.4,1.18 -6.9,2.07 -1.51,0.89 -2.5,1.96 -2.95,3.18 -0.48,1.24 -0.68,2.6 -0.64,4.1 z m 147.69,7.49 c 0.03,-7.17 0.83,-13.28 2.4,-18.31 1.58,-5.03 3.73,-9.21 6.45,-12.46 2.72,-3.25 5.83,-5.82 9.3,-7.64 3.5,-1.82 7.15,-3.07 11,-3.82 3.82,-0.71 7.64,-1.07 11.46,-1.03 H 2922 c 3.82,-0.04 7.64,0.32 11.49,1.03 3.81,0.75 7.47,2 10.97,3.82 3.46,1.82 6.57,4.39 9.3,7.64 2.73,3.25 4.87,7.43 6.44,12.46 1.58,5.03 2.38,11.14 2.41,18.31 v 26.14 c -0.03,7.17 -0.83,13.27 -2.41,18.31 -1.57,5.03 -3.71,9.21 -6.44,12.46 -2.73,3.25 -5.84,5.82 -9.3,7.64 -3.5,1.82 -7.16,3.07 -10.97,3.81 -3.85,0.72 -7.67,1.08 -11.49,1.04 h -55.23 c -3.82,0.04 -7.64,-0.32 -11.46,-1.04 -3.85,-0.74 -7.5,-1.99 -11,-3.81 -3.47,-1.82 -6.58,-4.39 -9.3,-7.64 -2.72,-3.25 -4.87,-7.43 -6.45,-12.46 -1.57,-5.04 -2.37,-11.14 -2.4,-18.31 z m 36.95,18.21 c 0,5.18 0.93,9.25 2.76,12.25 1.86,2.96 4.65,5.06 8.4,6.31 3.72,1.21 8.41,1.82 14.05,1.79 h 8.86 c 5.93,0.03 10.78,-0.21 14.53,-0.75 3.75,-0.54 6.63,-1.47 8.66,-2.79 2.02,-1.32 3.43,-3.14 4.2,-5.5 0.77,-2.35 1.13,-5.31 1.09,-8.95 v -15 c 0.04,-3.61 -0.32,-6.6 -1.09,-8.96 -0.77,-2.35 -2.18,-4.17 -4.2,-5.5 -2.03,-1.31 -4.91,-2.24 -8.66,-2.78 -3.75,-0.5 -8.6,-0.79 -14.53,-0.75 h -8.86 c -5.64,-0.04 -10.33,0.57 -14.05,1.79 -3.75,1.24 -6.54,3.35 -8.4,6.35 -1.83,2.96 -2.76,7.03 -2.76,12.21 z m 118.81,-59.76 h 36.96 v 155.08 h -36.96 z m 190.23,109.24 h -36.95 v -55.05 c 0,-5.21 -1.04,-9.6 -3.03,-13.1 -2.01,-3.54 -4.87,-6.21 -8.62,-8 -3.76,-1.78 -8.28,-2.67 -13.57,-2.67 h -8.47 c -8.05,0 -14.05,1.32 -17.99,4 -3.95,2.67 -5.9,6.71 -5.88,12.06 v 62.76 h -36.95 v -62.76 c 0.03,-7.82 0.87,-14.46 2.47,-19.92 1.64,-5.5 3.86,-9.99 6.68,-13.53 2.82,-3.53 6.06,-6.28 9.69,-8.32 3.65,-2 7.53,-3.49 11.61,-4.39 4.11,-0.93 8.24,-1.5 12.38,-1.75 4.17,-0.21 8.18,-0.32 12.02,-0.28 6.61,-0.04 12.45,0.49 17.55,1.6 5.07,1.15 9.43,3.11 13.03,5.93 3.62,2.78 6.51,6.71 8.68,11.75 h 0.4 v -17.57 h 36.95 z m 28.55,-72.83 c 0.03,-7.49 1.19,-13.74 3.43,-18.7 2.25,-4.93 5.29,-8.86 9.24,-11.67 3.91,-2.87 8.4,-4.86 13.47,-6.04 5.07,-1.18 10.49,-1.75 16.2,-1.71 h 14.62 c 7.35,0.03 13.68,0.96 18.97,2.82 5.28,1.82 9.58,4.39 12.95,7.71 3.37,3.28 5.87,7.18 7.47,11.6 1.61,4.43 2.38,9.28 2.38,14.49 v 13.28 h -32.33 v -7.28 c 0.03,-3.32 -0.39,-5.96 -1.28,-7.85 -0.9,-1.93 -2.44,-3.29 -4.69,-4.07 -2.22,-0.79 -5.29,-1.18 -9.24,-1.15 -2.95,-0.03 -5.51,0.22 -7.63,0.76 -2.12,0.53 -3.76,1.5 -4.88,2.92 -1.15,1.43 -1.73,3.5 -1.73,6.18 v 41.98 h 57.36 v 29.56 h -57.36 v 25.7 h -36.95 v -25.7 h -18.48 v -29.56 h 18.48 z m 152.88,72.83 h -36.95 v -109.24 h 36.95 z m 0,45.84 h -36.95 v -32.14 h 36.95 z m 19.31,-113.53 c 0.04,-7.17 0.84,-13.28 2.41,-18.31 1.58,-5.03 3.72,-9.21 6.45,-12.46 2.72,-3.25 5.83,-5.82 9.3,-7.64 3.49,-1.82 7.15,-3.07 11,-3.82 3.82,-0.71 7.63,-1.07 11.45,-1.03 h 55.24 c 3.82,-0.04 7.64,0.32 11.49,1.03 3.81,0.75 7.47,2 10.97,3.82 3.46,1.82 6.57,4.39 9.3,7.64 2.73,3.25 4.87,7.43 6.44,12.46 1.58,5.03 2.38,11.14 2.41,18.31 v 26.14 c -0.03,7.17 -0.83,13.27 -2.41,18.31 -1.57,5.03 -3.71,9.21 -6.44,12.46 -2.73,3.25 -5.84,5.82 -9.3,7.64 -3.5,1.82 -7.16,3.07 -10.97,3.81 -3.85,0.72 -7.67,1.08 -11.49,1.04 h -55.24 c -3.82,0.04 -7.63,-0.32 -11.45,-1.04 -3.85,-0.74 -7.51,-1.99 -11,-3.81 -3.47,-1.82 -6.58,-4.39 -9.3,-7.64 -2.73,-3.25 -4.87,-7.43 -6.45,-12.46 -1.57,-5.04 -2.37,-11.14 -2.41,-18.31 z m 36.96,18.21 c 0,5.18 0.93,9.25 2.76,12.25 1.85,2.96 4.65,5.06 8.4,6.31 3.72,1.21 8.4,1.82 14.05,1.79 h 8.85 c 5.94,0.03 10.78,-0.21 14.53,-0.75 3.76,-0.54 6.64,-1.47 8.67,-2.79 2.02,-1.32 3.43,-3.14 4.2,-5.5 0.77,-2.35 1.12,-5.31 1.09,-8.95 v -15 c 0.03,-3.61 -0.32,-6.6 -1.09,-8.96 -0.77,-2.35 -2.18,-4.17 -4.2,-5.5 -2.03,-1.31 -4.91,-2.24 -8.67,-2.78 -3.75,-0.5 -8.59,-0.79 -14.53,-0.75 h -8.85 c -5.65,-0.04 -10.33,0.57 -14.05,1.79 -3.75,1.24 -6.55,3.35 -8.4,6.35 -1.83,2.96 -2.76,7.03 -2.76,12.21 z m 116.7,-59.76 h 36.95 v 55.05 c 0.03,5.21 1.02,9.6 3.02,13.1 2.02,3.53 4.9,6.21 8.66,8 3.75,1.78 8.24,2.67 13.53,2.67 h 8.47 c 8.09,0 14.09,-1.32 18,-3.99 3.94,-2.68 5.89,-6.72 5.86,-12.07 v -62.76 H 3658 v 62.76 c -0.03,7.82 -0.87,14.46 -2.47,19.91 -1.61,5.5 -3.85,10 -6.67,13.54 -2.82,3.53 -6.04,6.32 -9.69,8.31 -3.66,2.04 -7.54,3.51 -11.62,4.4 -4.1,0.92 -8.24,1.5 -12.37,1.75 -4.17,0.21 -8.18,0.32 -12.04,0.28 -6.6,0.04 -12.44,-0.5 -17.54,-1.6 -5.07,-1.15 -9.43,-3.11 -13.03,-5.93 -3.62,-2.78 -6.5,-6.71 -8.68,-11.75 h -0.39 v 17.57 h -36.95 z m 147.49,34.06 c -0.03,-6.71 0.8,-12.39 2.5,-16.96 1.67,-4.6 4.33,-8.28 8.02,-11.03 3.65,-2.78 8.47,-4.78 14.4,-6 5.94,-1.21 13.16,-1.82 21.66,-1.78 h 35.02 c 8.4,0 15.62,0.32 21.65,1 6.03,0.71 11.04,1.85 15.05,3.49 4.01,1.61 7.18,3.82 9.49,6.61 2.31,2.78 3.98,6.25 4.94,10.43 0.97,4.17 1.45,9.13 1.41,14.88 0.07,3.93 -0.19,7.68 -0.7,11.24 -0.52,3.54 -1.6,6.86 -3.27,9.86 -1.7,3 -4.27,5.6 -7.7,7.82 -3.46,2.24 -8.08,3.96 -13.92,5.21 -5.81,1.21 -13.13,1.82 -21.94,1.85 h -25.6 c -4.78,0 -8.63,0.11 -11.58,0.36 -2.95,0.22 -5.17,0.57 -6.7,1.11 -1.54,0.49 -2.57,1.14 -3.11,1.96 -0.52,0.82 -0.78,1.82 -0.74,3 -0.04,1.86 0.28,3.36 0.96,4.43 0.67,1.1 1.92,1.92 3.72,2.46 1.83,0.53 4.4,0.89 7.73,1.03 3.37,0.18 7.7,0.25 12.99,0.22 5.48,0 9.95,-0.07 13.38,-0.25 3.43,-0.22 6.06,-0.57 7.95,-1.07 1.9,-0.54 3.31,-1.29 4.21,-2.29 0.89,-1 1.57,-2.28 1.98,-3.89 h 36.96 c -0.04,5.14 -0.52,9.57 -1.45,13.32 -0.93,3.75 -2.59,6.93 -4.94,9.46 -2.34,2.57 -5.64,4.61 -9.91,6.14 -4.23,1.53 -9.72,2.64 -16.39,3.28 -6.7,0.68 -14.85,1 -24.47,1 h -25.79 c -6.39,0.04 -12.32,-0.28 -17.74,-1.07 -5.46,-0.75 -10.23,-2.21 -14.31,-4.35 -4.07,-2.18 -7.25,-5.33 -9.53,-9.5 -2.27,-4.14 -3.43,-9.61 -3.46,-16.35 -0.04,-7.46 0.67,-13.67 2.15,-18.63 1.44,-4.97 3.88,-8.93 7.25,-11.82 3.4,-2.9 7.99,-4.96 13.73,-6.21 5.77,-1.25 12.96,-1.86 21.52,-1.89 h 34.65 c 4.32,0 7.63,-0.29 9.97,-0.9 2.31,-0.6 3.91,-1.57 4.78,-2.92 0.87,-1.32 1.28,-3.04 1.22,-5.18 0.03,-1.64 -0.29,-3 -0.96,-4.07 -0.68,-1.07 -1.8,-1.89 -3.44,-2.49 -1.64,-0.58 -3.88,-1.01 -6.73,-1.25 -2.86,-0.22 -6.45,-0.33 -10.82,-0.33 h -13.08 c -5.2,0 -9.34,0.25 -12.41,0.72 -3.12,0.5 -5.39,1.18 -6.9,2.07 -1.51,0.89 -2.51,1.96 -2.95,3.18 -0.48,1.24 -0.67,2.6 -0.64,4.1 h -38.11" /><path
         id="path36"
         style="fill:#373f3f;fill-opacity:1;fill-rule:nonzero;stroke:none"
         d="m 1580.92,4721.93 v 14.37 l 83.09,35.08 v -15.31 l -65.89,-27.04 65.89,-27.27 v -15.34 z m 207.32,-54.84 v 110.63 h -41.32 v 14.8 h 99.41 v -14.8 h -41.5 v -110.63 z m 85.69,0 v 125.43 h 90.68 v -14.8 h -74.09 v -38.41 h 69.39 v -14.72 h -69.39 v -42.69 h 77.01 v -14.81 z m 216.23,43.98 16.62,-4.2 c -3.48,-13.62 -9.76,-24.01 -18.78,-31.19 -9.05,-7.16 -20.09,-10.72 -33.18,-10.72 -13.52,0 -24.5,2.74 -32.96,8.23 -8.48,5.52 -14.93,13.49 -19.34,23.92 -4.41,10.46 -6.63,21.67 -6.63,33.65 0,13.05 2.48,24.44 7.48,34.17 4.99,9.72 12.09,17.11 21.31,22.16 9.2,5.05 19.34,7.57 30.41,7.57 12.55,0 23.1,-3.19 31.65,-9.58 8.56,-6.4 14.52,-15.37 17.88,-26.96 l -16.33,-3.86 c -2.92,9.15 -7.12,15.78 -12.67,19.95 -5.52,4.18 -12.47,6.25 -20.88,6.25 -9.64,0 -17.67,-2.3 -24.15,-6.92 -6.49,-4.65 -11.04,-10.84 -13.64,-18.63 -2.63,-7.77 -3.95,-15.8 -3.95,-24.07 0,-10.68 1.55,-19.97 4.65,-27.95 3.12,-7.94 7.94,-13.9 14.51,-17.84 6.57,-3.94 13.67,-5.9 21.32,-5.9 9.29,0 17.15,2.69 23.6,8.03 6.45,5.37 10.81,13.35 13.08,23.89 z m 47.79,-43.98 v 125.43 h 16.61 v -51.51 h 65.19 v 51.51 h 16.61 v -125.43 h -16.61 v 59.11 h -65.19 v -59.11 z m 203.71,0 v 125.43 h 55.61 c 11.18,0 19.68,-1.14 25.5,-3.39 5.81,-2.24 10.45,-6.21 13.95,-11.91 3.48,-5.72 5.2,-12.03 5.2,-18.92 0,-8.91 -2.86,-16.39 -8.64,-22.49 -5.76,-6.11 -14.66,-9.99 -26.7,-11.65 4.41,-2.11 7.74,-4.18 10.02,-6.26 4.85,-4.43 9.44,-10.01 13.79,-16.67 l 21.81,-34.14 h -20.88 l -16.59,26.11 c -4.85,7.5 -8.85,13.28 -12,17.26 -3.12,4 -5.93,6.8 -8.41,8.38 -2.48,1.61 -5,2.72 -7.57,3.36 -1.89,0.38 -4.96,0.58 -9.25,0.58 h -19.25 v -55.69 z m 16.59,70.06 h 35.69 c 7.56,0 13.52,0.79 17.78,2.37 4.3,1.57 7.54,4.08 9.76,7.53 2.22,3.45 3.32,7.18 3.32,11.25 0,5.92 -2.12,10.8 -6.45,14.63 -4.29,3.82 -11.1,5.72 -20.41,5.72 h -39.69 z m 120.27,-70.06 v 125.43 h 90.68 v -14.8 h -74.09 v -38.41 h 69.39 v -14.72 h -69.39 v -42.69 h 77.01 v -14.81 z m 216.23,43.98 16.62,-4.2 c -3.48,-13.62 -9.76,-24.01 -18.78,-31.19 -9.05,-7.16 -20.09,-10.72 -33.18,-10.72 -13.52,0 -24.5,2.74 -32.97,8.23 -8.47,5.52 -14.92,13.49 -19.33,23.92 -4.41,10.46 -6.63,21.67 -6.63,33.65 0,13.05 2.48,24.44 7.47,34.17 5,9.72 12.09,17.11 21.32,22.16 9.2,5.05 19.34,7.57 30.41,7.57 12.55,0 23.09,-3.19 31.65,-9.58 8.56,-6.4 14.51,-15.37 17.87,-26.96 l -16.32,-3.86 c -2.92,9.15 -7.13,15.78 -12.67,19.95 -5.52,4.18 -12.48,6.25 -20.89,6.25 -9.64,0 -17.66,-2.3 -24.15,-6.92 -6.48,-4.65 -11.04,-10.84 -13.63,-18.63 -2.63,-7.77 -3.95,-15.8 -3.95,-24.07 0,-10.68 1.55,-19.97 4.64,-27.95 3.13,-7.94 7.95,-13.9 14.52,-17.84 6.57,-3.94 13.67,-5.9 21.32,-5.9 9.29,0 17.14,2.69 23.59,8.03 6.46,5.37 10.81,13.35 13.09,23.89 z m 47.55,-43.98 v 125.43 h 55.6 c 11.19,0 19.69,-1.14 25.5,-3.39 5.81,-2.24 10.46,-6.21 13.96,-11.91 3.47,-5.72 5.2,-12.03 5.2,-18.92 0,-8.91 -2.86,-16.39 -8.65,-22.49 -5.75,-6.11 -14.66,-9.99 -26.69,-11.65 4.41,-2.11 7.74,-4.18 10.02,-6.26 4.84,-4.43 9.43,-10.01 13.78,-16.67 l 21.82,-34.14 h -20.88 l -16.59,26.11 c -4.85,7.5 -8.85,13.28 -12.01,17.26 -3.12,4 -5.92,6.8 -8.41,8.38 -2.48,1.61 -4.99,2.72 -7.56,3.36 -1.9,0.38 -4.97,0.58 -9.26,0.58 h -19.24 v -55.69 z m 16.59,70.06 h 35.68 c 7.57,0 13.53,0.79 17.79,2.37 4.29,1.57 7.53,4.08 9.75,7.53 2.22,3.45 3.33,7.18 3.33,11.25 0,5.92 -2.13,10.8 -6.45,14.63 -4.29,3.82 -11.1,5.72 -20.42,5.72 h -39.68 z m 202.21,55.37 h 16.62 v -72.48 c 0,-12.59 -1.43,-22.61 -4.29,-30.02 -2.87,-7.42 -8,-13.44 -15.45,-18.08 -7.45,-4.67 -17.2,-6.98 -29.3,-6.98 -11.73,0 -21.38,2.01 -28.82,6.07 -7.48,4.03 -12.82,9.9 -16,17.58 -3.22,7.69 -4.79,18.14 -4.79,31.43 v 72.48 h 16.59 v -72.39 c 0,-10.9 1.02,-18.93 3.03,-24.07 2.01,-5.17 5.52,-9.14 10.43,-11.95 4.93,-2.8 10.98,-4.2 18.1,-4.2 12.21,0 20.92,2.77 26.12,8.32 5.16,5.52 7.76,16.16 7.76,31.9 z m 57.31,-125.43 v 125.43 h 16.58 v -125.43 z m 87.99,0 v 110.63 h -41.32 v 14.8 h 99.4 v -14.8 h -41.5 v -110.63 z m 84.81,0 v 125.43 h 25 l 29.67,-88.81 c 2.75,-8.26 4.76,-14.46 5.99,-18.57 1.43,4.55 3.65,11.27 6.68,20.12 l 30.03,87.26 h 22.34 v -125.43 h -16 v 104.99 l -36.45,-104.99 h -14.98 l -36.28,106.77 v -106.77 z m 157.06,0 v 125.43 h 90.69 v -14.8 h -74.1 v -38.41 h 69.39 v -14.72 h -69.39 v -42.69 h 77.01 v -14.81 z m 126.58,0 v 125.43 h 17.02 l 65.89,-98.48 v 98.48 h 15.92 v -125.43 h -17.03 l -65.88,98.56 v -98.56 z m 168.86,0 v 110.63 h -41.32 v 14.8 h 99.41 v -14.8 h -41.5 v -110.63 z m 164.48,54.84 -83.08,-35.51 v 15.34 l 65.8,27.27 -65.8,27.04 v 15.31 l 83.08,-35.08 v -14.37" /><path
         id="path38"
         style="fill:#373f3f;fill-opacity:1;fill-rule:nonzero;stroke:none"
         d="m 1683.89,4664.96 36.36,129.7 h 12.33 l -36.28,-129.7 h -12.41" /><path
         id="path40"
         style="fill:#373f3f;fill-opacity:1;fill-rule:evenodd;stroke:none"
         d="m 1580.92,4864.48 h 2227.27 v -11.41 H 1580.92 v 11.41" /><path
         id="path42"
         style="fill:#2e3596;fill-opacity:1;fill-rule:evenodd;stroke:none"
         d="m 1580.92,5209.16 h 2227.27 v -11.41 H 1580.92 v 11.41" /><path
         id="path44"
         style="fill:#2e3596;fill-opacity:1;fill-rule:evenodd;stroke:none"
         d="M 1585.98,4140.32 H 1799.7 V 3926.6 h -213.72 v 213.72" /><path
         id="path46"
         style="fill:#2e3596;fill-opacity:1;fill-rule:nonzero;stroke:none"
         d="m 1893.83,4138.11 c 4.15,0 6.22,-2.23 6.22,-6.67 v -198.89 c 0,-4.45 -2.07,-6.67 -6.22,-6.67 h -30.54 c -4.33,0 -6.5,2.22 -6.5,6.67 v 198.89 c 0,4.44 2.17,6.67 6.5,6.67 z m 264.05,0 c 4.15,0 6.22,-2.23 6.22,-6.67 v -29.72 c 0,-4.64 -2.07,-6.97 -6.22,-6.97 h -141.64 c -7.35,0 -13.43,-0.66 -18.23,-1.97 -4.81,-1.32 -8.62,-3.54 -11.46,-6.67 -2.82,-3.14 -4.85,-7.33 -6.07,-12.58 -1.22,-5.26 -1.84,-11.93 -1.84,-20.01 v -43.66 c 0,-8.09 0.62,-14.81 1.84,-20.16 1.22,-5.36 3.25,-9.6 6.07,-12.74 2.84,-3.13 6.65,-5.35 11.46,-6.67 4.8,-1.31 10.88,-1.97 18.23,-1.97 h 93.3 c 4.9,0 8.48,1.37 10.75,4.1 2.25,2.72 3.38,7.53 3.38,14.4 v 24.56 c 0,2.62 -1.13,3.93 -3.38,3.93 h -82.84 c -4.15,0 -6.22,2.33 -6.22,6.98 v 22.74 c 0,4.65 2.07,6.97 6.22,6.97 h 117.89 c 5.65,0 8.48,-3.03 8.48,-9.09 v -70.65 c 0,-16.97 -3.02,-28.95 -9.05,-35.92 -6.03,-6.98 -14.7,-10.46 -26.01,-10.46 h -114.21 c -14.32,0 -26.49,1.41 -36.47,4.24 -9.99,2.83 -18.15,7.43 -24.45,13.79 -6.32,6.37 -10.94,14.66 -13.86,24.87 -2.93,10.2 -4.38,22.59 -4.38,37.14 v 52.15 c 0,14.55 1.45,26.88 4.38,36.98 2.92,10.11 7.54,18.34 13.86,24.72 6.3,6.36 14.46,11.01 24.45,13.94 9.98,2.93 22.15,4.4 36.47,4.4 z m 201.86,0 c 21.67,0 37.22,-5.26 46.64,-15.77 9.43,-10.51 14.14,-26.07 14.14,-46.69 v -17.28 c 0,-17.39 -3.3,-31.13 -9.89,-41.24 -6.6,-10.1 -17.34,-16.57 -32.23,-19.4 l 48.35,-64.27 c 0.94,-1.01 1.22,-2.53 0.84,-4.55 -0.38,-2.02 -1.88,-3.03 -4.52,-3.03 h -36.47 c -2.45,0 -4.15,0.3 -5.09,0.91 -0.94,0.6 -1.88,1.62 -2.83,3.03 l -44.67,63.06 h -91.32 v -60.33 c 0,-4.45 -2.06,-6.67 -6.21,-6.67 h -30.54 c -4.33,0 -6.5,2.22 -6.5,6.67 v 196.46 c 0,6.06 2.83,9.1 8.48,9.1 z m -117.05,-108.24 h 108.28 c 9.62,0 16.41,2.22 20.36,6.67 3.96,4.44 5.94,11.22 5.94,20.32 v 12.73 c 0,9.09 -1.98,15.86 -5.94,20.31 -3.95,4.44 -10.74,6.67 -20.36,6.67 h -104.6 c -2.45,0 -3.68,-1.21 -3.68,-3.64 v -63.06" /><path
         id="path48"
         style="fill:#202626;fill-opacity:1;fill-rule:nonzero;stroke:none"
         d="m 2626.82,4055.86 c 2.65,0 3.98,-1.43 3.98,-4.27 v -18.94 c 0,-2.84 -1.33,-4.26 -3.98,-4.26 h -99.57 c -4.56,0 -7.72,-0.91 -9.49,-2.72 -1.76,-1.81 -2.65,-4.46 -2.65,-7.93 v -3.55 c 0,-3.16 0.89,-5.65 2.65,-7.46 1.77,-1.81 4.93,-2.72 9.49,-2.72 h 74.41 c 12.36,0 21.19,-2.77 26.49,-8.29 5.29,-5.52 7.94,-13.34 7.94,-23.43 v -13.27 c 0,-5.21 -0.59,-9.86 -1.76,-13.96 -1.18,-4.11 -3.13,-7.58 -5.85,-10.42 -2.73,-2.84 -6.29,-5.01 -10.71,-6.51 -4.42,-1.5 -9.86,-2.25 -16.34,-2.25 H 2488.4 c -2.65,0 -3.97,1.42 -3.97,4.26 v 18.94 c 0,2.84 1.32,4.26 3.97,4.26 h 104.64 c 4.57,0 7.77,0.87 9.61,2.61 1.84,1.73 2.76,4.65 2.76,8.76 v 6.39 c 0,3.16 -0.92,5.6 -2.76,7.34 -1.84,1.74 -5.04,2.6 -9.61,2.6 h -74.17 c -12.37,0 -21.2,2.73 -26.49,8.17 -5.3,5.44 -7.95,13.38 -7.95,23.79 v 10.42 c 0,4.89 0.58,9.35 1.76,13.38 1.18,4.02 3.13,7.45 5.85,10.29 2.73,2.85 6.3,5.02 10.71,6.52 4.41,1.5 9.86,2.25 16.34,2.25 z m 146.15,0 c 9.86,0 18.18,-0.91 24.95,-2.73 6.77,-1.81 12.18,-4.65 16.22,-8.52 4.05,-3.87 6.96,-8.84 8.73,-14.91 1.76,-6.08 2.65,-13.38 2.65,-21.9 v -34.1 c 0,-8.52 -0.89,-15.82 -2.65,-21.9 -1.77,-6.07 -4.68,-11.05 -8.73,-14.91 -4.04,-3.87 -9.45,-6.67 -16.22,-8.41 -6.77,-1.74 -15.09,-2.6 -24.95,-2.6 h -62.47 c -10.01,0 -18.37,0.86 -25.07,2.6 -6.69,1.74 -12.06,4.54 -16.11,8.41 -4.05,3.86 -6.95,8.84 -8.72,14.91 -1.76,6.08 -2.65,13.38 -2.65,21.9 v 34.1 c 0,8.52 0.89,15.82 2.65,21.9 1.77,6.07 4.67,11.04 8.72,14.91 4.05,3.87 9.42,6.71 16.11,8.52 6.7,1.82 15.06,2.73 25.07,2.73 z m -83.45,-76.24 c 0,-5.05 0.37,-9.23 1.11,-12.55 0.73,-3.31 2.02,-5.96 3.86,-7.93 1.84,-1.97 4.31,-3.39 7.39,-4.26 3.09,-0.87 7,-1.3 11.71,-1.3 h 56.29 c 4.86,0 8.83,0.43 11.92,1.3 3.09,0.87 5.56,2.29 7.4,4.26 1.84,1.97 3.13,4.62 3.86,7.93 0.74,3.32 1.11,7.5 1.11,12.55 v 22.49 c 0,4.9 -0.37,9 -1.11,12.32 -0.73,3.31 -2.02,5.99 -3.86,8.05 -1.84,2.04 -4.31,3.47 -7.4,4.25 -3.09,0.8 -7.06,1.19 -11.92,1.19 h -56.29 c -4.71,0 -8.62,-0.39 -11.71,-1.19 -3.08,-0.78 -5.55,-2.21 -7.39,-4.25 -1.84,-2.06 -3.13,-4.74 -3.86,-8.05 -0.74,-3.32 -1.11,-7.42 -1.11,-12.32 z m 188.76,123.82 c 3.24,0 4.86,-1.73 4.86,-5.21 v -167.14 c 0,-3.47 -1.62,-5.21 -4.86,-5.21 h -21.64 c -3.23,0 -4.85,1.74 -4.85,5.21 v 167.14 c 0,3.48 1.62,5.21 4.85,5.21 z m 58.94,-47.58 c 3.24,0 4.85,-1.82 4.85,-5.45 v -68.42 c 0,-5.05 0.31,-9.24 0.89,-12.55 0.59,-3.31 1.7,-5.96 3.31,-7.93 1.62,-1.97 3.91,-3.39 6.85,-4.26 2.94,-0.87 6.84,-1.3 11.7,-1.3 h 56.74 c 4.85,0 8.83,0.43 11.92,1.3 3.09,0.87 5.56,2.29 7.4,4.26 1.83,1.97 3.12,4.62 3.85,7.93 0.74,3.31 1.11,7.5 1.11,12.55 v 68.42 c 0,3.63 1.62,5.45 4.86,5.45 h 21.63 c 3.24,0 4.86,-1.82 4.86,-5.45 v -76.71 c 0,-8.52 -0.88,-15.82 -2.65,-21.9 -1.77,-6.07 -4.67,-11.05 -8.72,-14.91 -4.05,-3.87 -9.46,-6.67 -16.23,-8.41 -6.77,-1.74 -15.08,-2.6 -24.95,-2.6 h -61.59 c -10.01,0 -18.36,0.86 -25.05,2.6 -6.7,1.74 -12.07,4.54 -16.12,8.41 -4.05,3.86 -6.95,8.84 -8.72,14.91 -1.77,6.08 -2.65,13.38 -2.65,21.9 v 76.71 c 0,3.63 1.69,5.45 5.08,5.45 z m 182.14,0 v 31.25 c 0,3.47 1.62,5.21 4.85,5.21 h 21.86 c 3.24,0 4.86,-1.74 4.86,-5.21 v -31.25 h 38.63 c 2.65,0 3.98,-1.43 3.98,-4.27 v -19.41 c 0,-2.84 -1.33,-4.26 -3.98,-4.26 h -38.63 v -54.93 c 0,-6.62 1.25,-11.48 3.75,-14.56 2.5,-3.08 7.43,-4.62 14.79,-4.62 h 21.41 c 2.66,0 3.98,-1.42 3.98,-4.26 v -19.41 c 0,-2.84 -1.32,-4.26 -3.98,-4.26 h -26.71 c -8.83,0 -16.12,0.86 -21.85,2.6 -5.74,1.74 -10.34,4.5 -13.8,8.29 -3.46,3.78 -5.85,8.68 -7.18,14.68 -1.32,6 -1.98,13.18 -1.98,21.54 v 54.93 h -20.98 c -2.65,0 -3.97,1.42 -3.97,4.26 v 19.41 c 0,2.84 1.32,4.27 3.97,4.27 z m 120.1,0 c 3.23,0 4.85,-1.82 4.85,-5.45 v -119.32 c 0,-3.47 -1.62,-5.21 -4.85,-5.21 h -21.64 c -3.24,0 -4.86,1.74 -4.86,5.21 v 119.32 c 0,3.63 1.62,5.45 4.86,5.45 z m 0,48.05 c 3.23,0 4.85,-1.73 4.85,-5.2 v -22.5 c 0,-3.62 -1.62,-5.44 -4.85,-5.44 h -21.64 c -3.39,0 -5.07,1.82 -5.07,5.44 v 22.5 c 0,3.47 1.68,5.2 5.07,5.2 z m 145.92,-48.05 c 9.87,0 18.18,-0.91 24.95,-2.73 6.77,-1.81 12.18,-4.65 16.23,-8.52 4.05,-3.87 6.95,-8.84 8.72,-14.91 1.76,-6.08 2.65,-13.38 2.65,-21.9 v -34.1 c 0,-8.52 -0.89,-15.82 -2.65,-21.9 -1.77,-6.07 -4.67,-11.05 -8.72,-14.91 -4.05,-3.87 -9.46,-6.67 -16.23,-8.41 -6.77,-1.74 -15.08,-2.6 -24.95,-2.6 h -62.47 c -10.01,0 -18.36,0.86 -25.06,2.6 -6.7,1.74 -12.07,4.54 -16.12,8.41 -4.05,3.86 -6.95,8.84 -8.72,14.91 -1.76,6.08 -2.65,13.38 -2.65,21.9 v 34.1 c 0,8.52 0.89,15.82 2.65,21.9 1.77,6.07 4.67,11.04 8.72,14.91 4.05,3.87 9.42,6.71 16.12,8.52 6.7,1.82 15.05,2.73 25.06,2.73 z m -83.45,-76.24 c 0,-5.05 0.37,-9.23 1.11,-12.55 0.73,-3.31 2.02,-5.96 3.86,-7.93 1.84,-1.97 4.31,-3.39 7.4,-4.26 3.09,-0.87 6.99,-1.3 11.7,-1.3 h 56.29 c 4.86,0 8.84,0.43 11.92,1.3 3.09,0.87 5.56,2.29 7.4,4.26 1.84,1.97 3.13,4.62 3.86,7.93 0.74,3.32 1.11,7.5 1.11,12.55 v 22.49 c 0,4.9 -0.37,9 -1.11,12.32 -0.73,3.31 -2.02,5.99 -3.86,8.05 -1.84,2.04 -4.31,3.47 -7.4,4.25 -3.08,0.8 -7.06,1.19 -11.92,1.19 H 3326 c -4.71,0 -8.61,-0.39 -11.7,-1.19 -3.09,-0.78 -5.56,-2.21 -7.4,-4.25 -1.84,-2.06 -3.13,-4.74 -3.86,-8.05 -0.74,-3.32 -1.11,-7.42 -1.11,-12.32 z m 277.28,76.24 c 9.87,0 18.18,-0.91 24.95,-2.73 6.77,-1.81 12.19,-4.65 16.23,-8.52 4.05,-3.87 6.96,-8.84 8.72,-14.91 1.77,-6.08 2.65,-13.38 2.65,-21.9 v -76.71 c 0,-3.47 -1.62,-5.21 -4.86,-5.21 h -21.63 c -3.23,0 -4.86,1.74 -4.86,5.21 v 68.65 c 0,4.9 -0.29,9.05 -0.88,12.43 -0.59,3.4 -1.73,6.08 -3.42,8.05 -1.7,1.98 -4.02,3.4 -6.95,4.26 -2.95,0.88 -6.78,1.31 -11.49,1.31 h -58.72 c -4.71,0 -8.61,-0.43 -11.7,-1.31 -3.09,-0.86 -5.56,-2.28 -7.4,-4.26 -1.83,-1.97 -3.13,-4.65 -3.86,-8.05 -0.74,-3.38 -1.11,-7.53 -1.11,-12.43 v -68.65 c 0,-3.47 -1.61,-5.21 -4.85,-5.21 h -21.64 c -3.39,0 -5.08,1.74 -5.08,5.21 v 76.71 c 0,8.52 0.89,15.82 2.65,21.9 1.77,6.07 4.68,11.04 8.72,14.91 4.05,3.87 9.43,6.71 16.12,8.52 6.7,1.82 15.05,2.73 25.06,2.73 z m 219.67,0 c 2.65,0 3.98,-1.43 3.98,-4.27 v -18.94 c 0,-2.84 -1.33,-4.26 -3.98,-4.26 h -99.57 c -4.56,0 -7.72,-0.91 -9.49,-2.72 -1.77,-1.81 -2.65,-4.46 -2.65,-7.93 v -3.55 c 0,-3.16 0.88,-5.65 2.65,-7.46 1.77,-1.81 4.93,-2.72 9.49,-2.72 h 74.41 c 12.36,0 21.19,-2.77 26.49,-8.29 5.3,-5.52 7.95,-13.34 7.95,-23.43 v -13.27 c 0,-5.21 -0.59,-9.86 -1.77,-13.96 -1.18,-4.11 -3.13,-7.58 -5.85,-10.42 -2.72,-2.84 -6.29,-5.01 -10.71,-6.51 -4.42,-1.5 -9.86,-2.25 -16.33,-2.25 h -113.04 c -2.65,0 -3.98,1.42 -3.98,4.26 v 18.94 c 0,2.84 1.33,4.26 3.98,4.26 h 104.65 c 4.56,0 7.76,0.87 9.6,2.61 1.84,1.73 2.76,4.65 2.76,8.76 v 6.39 c 0,3.16 -0.92,5.6 -2.76,7.34 -1.84,1.74 -5.04,2.6 -9.6,2.6 h -74.18 c -12.36,0 -21.2,2.73 -26.5,8.17 -5.29,5.44 -7.95,13.38 -7.95,23.79 v 10.42 c 0,4.89 0.59,9.35 1.77,13.38 1.18,4.02 3.13,7.45 5.85,10.29 2.73,2.85 6.3,5.02 10.71,6.52 4.41,1.5 9.86,2.25 16.34,2.25 h 107.73" /><path
         id="path50"
         style="fill:#62696c;fill-opacity:1;fill-rule:nonzero;stroke:none"
         d="m 1803.16,3721.31 -66.14,28.77 V 3766 l 66.14,28.61 v -18.75 l -46.13,-17.63 46.13,-18.3 z m 18.08,-12.62 23.9,99.73 h 13.88 l -24.14,-99.73 z m 87.87,1.64 v 80.12 h -28.61 v 16.33 h 76.64 v -16.33 h -28.54 v -80.12 z m 79.32,0 v 96.45 h 71.5 v -16.33 h -52.03 v -21.38 h 48.42 v -16.23 h -48.42 v -26.25 h 53.87 v -16.26 z m 170.3,35.46 18.86,-5.97 c -2.89,-10.53 -7.71,-18.36 -14.44,-23.47 -6.71,-5.1 -15.27,-7.66 -25.62,-7.66 -12.8,0 -23.33,4.38 -31.58,13.11 -8.24,8.76 -12.37,20.73 -12.37,35.89 0,16.06 4.16,28.52 12.44,37.41 8.29,8.87 19.18,13.32 32.7,13.32 11.79,0 21.38,-3.48 28.74,-10.47 4.4,-4.11 7.68,-10.04 9.88,-17.76 l -19.29,-4.6 c -1.12,5 -3.5,8.96 -7.14,11.86 -3.62,2.89 -8.02,4.33 -13.18,4.33 -7.14,0 -12.96,-2.56 -17.41,-7.71 -4.44,-5.11 -6.66,-13.43 -6.66,-24.92 0,-12.2 2.18,-20.88 6.58,-26.05 4.37,-5.19 10.08,-7.77 17.09,-7.77 5.18,0 9.63,1.64 13.35,4.94 3.73,3.28 6.41,8.47 8.05,15.52 z m 54.35,-35.46 v 96.45 h 19.49 v -37.96 h 38.15 v 37.96 h 19.47 v -96.45 h -19.47 v 42.17 h -38.15 v -42.17 z m 180.78,0 v 96.45 h 41 c 10.31,0 17.79,-0.88 22.46,-2.61 4.67,-1.72 8.43,-4.8 11.23,-9.22 2.81,-4.45 4.2,-9.5 4.2,-15.21 0,-7.23 -2.13,-13.22 -6.37,-17.94 -4.25,-4.69 -10.63,-7.68 -19.1,-8.89 4.23,-2.47 7.71,-5.17 10.45,-8.11 2.73,-2.94 6.42,-8.15 11.07,-15.65 l 11.79,-18.82 h -23.29 l -14.08,21 c -5.01,7.49 -8.42,12.21 -10.26,14.17 -1.84,1.95 -3.8,3.27 -5.86,4.02 -2.07,0.71 -5.32,1.07 -9.81,1.07 h -3.94 v -40.26 z m 19.49,55.67 h 14.4 c 9.34,0 15.18,0.38 17.52,1.17 2.31,0.78 4.13,2.15 5.45,4.08 1.3,1.94 1.98,4.34 1.98,7.23 0,3.26 -0.88,5.86 -2.61,7.86 -1.72,2 -4.18,3.26 -7.34,3.8 -1.57,0.2 -6.31,0.31 -14.21,0.31 h -15.19 z m 96.49,-55.67 v 96.45 h 71.5 v -16.33 h -52.04 v -21.38 h 48.42 v -16.23 h -48.42 v -26.25 h 53.88 v -16.26 z m 170.29,35.46 18.86,-5.97 c -2.89,-10.53 -7.7,-18.36 -14.44,-23.47 -6.71,-5.1 -15.26,-7.66 -25.62,-7.66 -12.8,0 -23.33,4.38 -31.57,13.11 -8.24,8.76 -12.38,20.73 -12.38,35.89 0,16.06 4.16,28.52 12.45,37.41 8.28,8.87 19.18,13.32 32.7,13.32 11.78,0 21.37,-3.48 28.73,-10.47 4.41,-4.11 7.68,-10.04 9.89,-17.76 l -19.3,-4.6 c -1.12,5 -3.5,8.96 -7.14,11.86 -3.61,2.89 -8.01,4.33 -13.18,4.33 -7.14,0 -12.95,-2.56 -17.4,-7.71 -4.44,-5.11 -6.67,-13.43 -6.67,-24.92 0,-12.2 2.18,-20.88 6.58,-26.05 4.38,-5.19 10.08,-7.77 17.09,-7.77 5.19,0 9.63,1.64 13.36,4.94 3.73,3.28 6.4,8.47 8.04,15.52 z m 54.35,-35.46 v 96.45 h 41.01 c 10.31,0 17.78,-0.88 22.46,-2.61 4.66,-1.72 8.42,-4.8 11.22,-9.22 2.81,-4.45 4.2,-9.5 4.2,-15.21 0,-7.23 -2.13,-13.22 -6.37,-17.94 -4.25,-4.69 -10.63,-7.68 -19.09,-8.89 4.22,-2.47 7.7,-5.17 10.44,-8.11 2.74,-2.94 6.42,-8.15 11.07,-15.65 l 11.79,-18.82 h -23.29 l -14.08,21 c -5,7.49 -8.42,12.21 -10.26,14.17 -1.84,1.95 -3.8,3.27 -5.86,4.02 -2.07,0.71 -5.32,1.07 -9.81,1.07 h -3.94 v -40.26 z m 19.49,55.67 h 14.4 c 9.34,0 15.18,0.38 17.52,1.17 2.31,0.78 4.13,2.15 5.45,4.08 1.31,1.94 1.98,4.34 1.98,7.23 0,3.26 -0.87,5.86 -2.61,7.86 -1.72,2 -4.17,3.26 -7.34,3.8 -1.57,0.2 -6.31,0.31 -14.21,0.31 h -15.19 z m 96.35,40.78 h 19.47 v -52.23 c 0,-8.29 0.25,-13.68 0.72,-16.13 0.83,-3.95 2.83,-7.12 5.95,-9.49 3.15,-2.41 7.43,-3.6 12.87,-3.6 5.52,0 9.7,1.12 12.51,3.39 2.8,2.25 4.49,5.03 5.05,8.31 0.58,3.3 0.85,8.76 0.85,16.4 v 53.35 h 19.47 v -50.66 c 0,-11.59 -0.51,-19.76 -1.57,-24.55 -1.05,-4.78 -2.99,-8.8 -5.82,-12.1 -2.82,-3.28 -6.62,-5.91 -11.34,-7.86 -4.73,-1.96 -10.93,-2.92 -18.57,-2.92 -9.21,0 -16.19,1.06 -20.95,3.19 -4.76,2.14 -8.51,4.89 -11.27,8.28 -2.76,3.39 -4.58,6.97 -5.46,10.7 -1.28,5.52 -1.91,13.67 -1.91,24.47 z m 115.55,-96.45 v 96.45 h 19.47 v -96.45 z m 78.45,0 v 80.12 h -28.61 v 16.33 h 76.65 v -16.33 h -28.54 v -80.12 z m 79.06,0 v 96.45 h 29.15 l 17.49,-65.8 17.29,65.8 h 29.22 v -96.45 h -18.08 v 75.92 l -19.16,-75.92 h -18.75 l -19.08,75.92 v -75.92 z m 131.22,0 v 96.45 h 71.5 v -16.33 h -52.03 v -21.38 h 48.41 v -16.23 h -48.41 v -26.25 h 53.87 v -16.26 z m 108.77,0 v 96.45 h 18.95 l 39.48,-64.4 v 64.4 h 18.09 v -96.45 h -19.55 l -38.88,62.9 v -62.9 z m 137.52,0 v 80.12 h -28.6 v 16.33 h 76.64 v -16.33 h -28.54 v -80.12 z m 75.76,10.91 v 18.62 l 46.19,18.16 -46.19,17.97 v 18.49 l 66.2,-28.62 v -15.78 l -66.2,-28.84" /><path
         id="path52"
         style="fill:#2e3596;fill-opacity:1;fill-rule:evenodd;stroke:none"
         d="m 1585.98,3870.62 h 2221.7 v -10.12 h -2221.7 v 10.12" /><path
         id="path54"
         style="fill:#202626;fill-opacity:1;fill-rule:evenodd;stroke:none"
         d="m 1585.98,3898.28 h 2222.86 v -10.12 H 1585.98 v 10.12" /><path
         id="path56"
         style="fill:#2e3596;fill-opacity:1;fill-rule:evenodd;stroke:none"
         d="m 2044.85,3146.94 h 244.61 v -244.6 h -244.61 v 244.6" /><path
         id="path58"
         style="fill:#2e3596;fill-opacity:1;fill-rule:nonzero;stroke:none"
         d="m 2473.61,2902.34 h -69.29 v 244.62 h 69.29 z m 237.85,152.84 h 143.28 v -152.84 h -153.66 c -19.41,0 -37.38,3.16 -53.89,9.5 -16.51,6.34 -30.74,15.05 -42.68,26.14 -11.94,11.1 -21.31,24.26 -28.12,39.5 -6.81,15.23 -10.21,31.75 -10.21,49.54 0,17.8 3.4,34.07 10.21,48.82 6.81,14.75 16.18,27.42 28.12,38.03 11.94,10.6 26.17,18.76 42.68,24.49 16.51,5.73 34.48,8.6 53.89,8.6 h 160.36 l -44.86,-63.62 h -115.5 c -9.37,0 -18.07,-1.46 -26.1,-4.39 -8.04,-2.93 -15.02,-7.07 -20.93,-12.44 -5.91,-5.36 -10.54,-11.63 -13.89,-18.83 -3.35,-7.19 -5.02,-15.17 -5.02,-23.95 0,-8.78 1.62,-16.76 4.85,-23.95 3.24,-7.19 7.81,-13.35 13.72,-18.46 5.92,-5.12 12.9,-9.08 20.93,-11.89 8.03,-2.8 16.85,-4.2 26.44,-4.2 h 84.7 v 35.47 h -115.82 z m 557.21,-152.84 h -92.72 l -49.88,64.71 h -106.46 v -64.71 h -69.29 v 125.05 h 194.83 c 10.71,0 19.75,2.44 27.11,7.31 7.37,4.88 11.05,11.58 11.05,20.11 0,9.51 -3.35,16.64 -10.04,21.39 -6.7,4.76 -16.07,7.14 -28.12,7.14 h -194.83 l 45.19,63.62 h 143.95 c 12.72,0 25.88,-1.28 39.5,-3.84 13.61,-2.56 26,-7.13 37.16,-13.71 11.15,-6.59 20.36,-15.48 27.61,-26.7 7.26,-11.21 10.88,-25.59 10.88,-43.14 0,-9.51 -1.34,-18.53 -4.01,-27.06 -2.68,-8.53 -6.53,-16.21 -11.56,-23.04 -5.01,-6.83 -11.15,-12.61 -18.41,-17.36 -7.25,-4.76 -15.45,-8.11 -24.6,-10.06 3.79,-3.17 8.03,-7.19 12.72,-12.07 4.68,-4.87 10.93,-11.58 18.75,-20.11 l 41.17,-47.53" /><path
         id="path60"
         style="fill:#202626;fill-opacity:1;fill-rule:nonzero;stroke:none"
         d="m 2130.84,2812 c 11.66,0 20.53,-2.52 26.6,-7.55 6.07,-5.03 9.11,-12.63 9.11,-22.8 0,-5.64 -0.76,-10.72 -2.28,-15.25 -1.52,-4.53 -3.93,-8.35 -7.25,-11.44 -3.32,-3.1 -7.57,-5.47 -12.74,-7.13 -5.17,-1.66 -11.35,-2.49 -18.57,-2.49 h -88.63 l 18.92,28.52 h 71.99 c 3.51,0 6.07,0.64 7.68,1.91 1.62,1.27 2.42,3.34 2.42,6.21 0,2.88 -0.8,4.92 -2.42,6.14 -1.61,1.22 -4.17,1.83 -7.68,1.83 h -51.78 c -6.17,0 -11.48,0.76 -15.94,2.32 -4.45,1.54 -8.15,3.69 -11.09,6.46 -2.94,2.76 -5.12,6.11 -6.55,10.03 -1.42,3.92 -2.13,8.26 -2.13,13.01 0,5.2 0.78,9.93 2.35,14.18 1.56,4.26 3.98,7.87 7.25,10.86 3.28,2.99 7.49,5.31 12.66,6.97 5.17,1.65 11.37,2.48 18.57,2.48 h 82.66 l -18.92,-28.85 h -66.02 c -3.41,0 -5.95,-0.55 -7.61,-1.66 -1.65,-1.1 -2.49,-3.09 -2.49,-5.96 0,-2.88 0.84,-4.9 2.49,-6.06 1.66,-1.16 4.2,-1.73 7.61,-1.73 z m 131.72,46.09 c 23.15,0 40.53,-4.59 52.15,-13.77 11.61,-9.17 17.42,-23.65 17.42,-43.43 0,-19.9 -5.79,-34.44 -17.35,-43.61 -11.58,-9.17 -28.98,-13.76 -52.22,-13.76 -23.33,0 -40.76,4.59 -52.28,13.76 -11.53,9.17 -17.29,23.71 -17.29,43.61 0,19.78 5.79,34.26 17.36,43.43 11.57,9.18 28.97,13.77 52.21,13.77 z m 0,-85.73 c 7.4,0 13.66,0.37 18.78,1.09 5.12,0.71 9.27,2.12 12.45,4.22 3.18,2.1 5.48,5.01 6.9,8.71 1.42,3.7 2.14,8.54 2.14,14.51 0,5.97 -0.72,10.8 -2.14,14.5 -1.42,3.7 -3.72,6.58 -6.9,8.63 -3.18,2.04 -7.33,3.42 -12.45,4.14 -5.12,0.72 -11.38,1.07 -18.78,1.07 -7.4,0 -13.65,-0.35 -18.77,-1.07 -5.13,-0.72 -9.28,-2.1 -12.45,-4.14 -3.18,-2.05 -5.48,-4.93 -6.91,-8.63 -1.41,-3.7 -2.13,-8.53 -2.13,-14.5 0,-5.97 0.72,-10.81 2.13,-14.51 1.43,-3.7 3.73,-6.61 6.91,-8.71 3.17,-2.1 7.32,-3.51 12.45,-4.22 5.12,-0.72 11.37,-1.09 18.77,-1.09 z m 204,1.5 -19.06,-28.52 h -84.09 v 110.92 h 29.46 v -82.4 z m 149.79,19.9 c 0,-33.5 -19.77,-50.24 -59.32,-50.24 -11.48,0 -21.34,1.05 -29.6,3.15 -8.25,2.1 -15.05,5.25 -20.41,9.45 -5.36,4.2 -9.29,9.42 -11.81,15.67 -2.51,6.24 -3.77,13.57 -3.77,21.97 v 62.5 h 29.31 v -62.5 c 0,-4.09 0.47,-7.52 1.42,-10.29 0.94,-2.76 2.72,-4.99 5.34,-6.71 2.6,-1.71 6.28,-2.93 11.02,-3.65 4.74,-0.72 10.91,-1.07 18.5,-1.07 5.68,0 10.43,0.39 14.22,1.16 3.8,0.77 6.83,2.04 9.11,3.81 2.27,1.77 3.91,4.03 4.91,6.79 0.99,2.77 1.48,6.09 1.48,9.96 v 62.5 h 29.6 z m 151.22,62.5 -19.07,-28.85 h -34 v -82.07 h -29.45 v 82.07 h -44.67 l 19.07,28.85 z m 55.18,-110.92 h -29.45 v 110.92 h 29.45 z m 101.28,112.75 c 23.15,0 40.52,-4.59 52.14,-13.77 11.62,-9.17 17.43,-23.65 17.43,-43.43 0,-19.9 -5.78,-34.44 -17.36,-43.61 -11.57,-9.17 -28.97,-13.76 -52.21,-13.76 -23.33,0 -40.76,4.59 -52.28,13.76 -11.52,9.17 -17.29,23.71 -17.29,43.61 0,19.78 5.79,34.26 17.36,43.43 11.57,9.18 28.97,13.77 52.21,13.77 z m 0,-85.73 c 7.4,0 13.66,0.37 18.78,1.09 5.12,0.71 9.27,2.12 12.45,4.22 3.18,2.1 5.47,5.01 6.9,8.71 1.43,3.7 2.13,8.54 2.13,14.51 0,5.97 -0.7,10.8 -2.13,14.5 -1.43,3.7 -3.72,6.58 -6.9,8.63 -3.18,2.04 -7.33,3.42 -12.45,4.14 -5.12,0.72 -11.38,1.07 -18.78,1.07 -7.4,0 -13.65,-0.35 -18.78,-1.07 -5.12,-0.72 -9.27,-2.1 -12.44,-4.14 -3.18,-2.05 -5.48,-4.93 -6.9,-8.63 -1.43,-3.7 -2.14,-8.53 -2.14,-14.5 0,-5.97 0.71,-10.81 2.14,-14.51 1.42,-3.7 3.72,-6.61 6.9,-8.71 3.17,-2.1 7.32,-3.51 12.44,-4.22 5.13,-0.72 11.38,-1.09 18.78,-1.09 z m 197.31,-28.84 c -1.9,0 -3.77,0.36 -5.62,1.08 -1.85,0.71 -3.91,2.35 -6.19,4.89 l -58.33,61.01 v -65.16 h -26.74 v 92.02 c 0,3.65 0.45,6.8 1.34,9.45 0.91,2.65 2.09,4.81 3.56,6.47 1.48,1.65 3.18,2.87 5.12,3.65 1.95,0.77 3.97,1.16 6.06,1.16 1.8,0 3.62,-0.36 5.47,-1.08 1.85,-0.72 3.96,-2.35 6.33,-4.89 l 58.33,-61.01 v 65.15 h 26.89 v -91.85 c 0,-3.65 -0.45,-6.8 -1.35,-9.45 -0.91,-2.66 -2.09,-4.84 -3.56,-6.55 -1.47,-1.71 -3.2,-2.96 -5.19,-3.73 -1.99,-0.77 -4.03,-1.16 -6.12,-1.16 z m 138.13,68.48 c 11.67,0 20.53,-2.52 26.6,-7.55 6.07,-5.03 9.11,-12.63 9.11,-22.8 0,-5.64 -0.76,-10.72 -2.28,-15.25 -1.52,-4.53 -3.94,-8.35 -7.26,-11.44 -3.32,-3.1 -7.56,-5.47 -12.73,-7.13 -5.17,-1.66 -11.36,-2.49 -18.57,-2.49 h -88.63 l 18.92,28.52 h 71.99 c 3.51,0 6.07,0.64 7.68,1.91 1.62,1.27 2.42,3.34 2.42,6.21 0,2.88 -0.8,4.92 -2.42,6.14 -1.61,1.22 -4.17,1.83 -7.68,1.83 h -51.78 c -6.17,0 -11.48,0.76 -15.94,2.32 -4.45,1.54 -8.15,3.69 -11.1,6.46 -2.93,2.76 -5.12,6.11 -6.54,10.03 -1.42,3.92 -2.13,8.26 -2.13,13.01 0,5.2 0.78,9.93 2.35,14.18 1.56,4.26 3.98,7.87 7.25,10.86 3.27,2.99 7.49,5.31 12.66,6.97 5.17,1.65 11.36,2.48 18.57,2.48 h 82.66 l -18.92,-28.85 h -66.02 c -3.41,0 -5.95,-0.55 -7.61,-1.66 -1.66,-1.1 -2.49,-3.09 -2.49,-5.96 0,-2.88 0.83,-4.9 2.49,-6.06 1.66,-1.16 4.2,-1.73 7.61,-1.73 h 51.79" /><path
         id="path62"
         style="fill:#202626;fill-opacity:1;fill-rule:evenodd;stroke:none"
         d="m 2070.13,2583.99 38.84,-18.04 v -17.13 l -57.99,28.07 v 13.35 l 57.99,28.22 v -16.18 z m 106.4,54.86 -23.86,-99.01 h -16 l 24.02,99.01 z m 47.18,-15.3 v -83.71 h -18.43 v 83.71 h -16.09 v 15.3 h 51.07 v -15.3 z m 52.57,-0.66 v -23.68 h 18.64 v -15.97 h -18.49 v -27.29 h 20.75 v -16.11 H 2258 v 99.01 h 39.18 v -15.96 z m 89.25,-59.49 c 0,-1.32 -0.05,-2.65 -0.16,-3.98 -0.1,-1.36 -0.33,-2.66 -0.63,-3.92 -0.24,-1.35 -0.64,-2.63 -1.19,-3.88 -0.62,-1.37 -1.43,-2.66 -2.35,-3.83 -1.74,-2.33 -4.59,-4.4 -7.01,-6.01 -4.01,-2.51 -9.26,-3.15 -13.89,-3.15 -4.59,0 -9.65,0.66 -13.74,3.01 -2.29,1.49 -4.99,3.42 -6.72,5.62 -1.94,2.65 -3.34,5.65 -3.71,8.96 -0.28,2.83 -0.46,5.69 -0.46,8.54 v 45.82 c 0,1.1 0.03,2.21 0.08,3.32 0.04,1.11 0.12,2.17 0.22,3.18 0,1.36 0.25,2.84 0.48,4.18 0.34,2.16 1.04,4.24 2,6.24 1.19,2.35 2.89,4.43 4.82,6.25 2.48,2.22 5.57,3.71 8.7,4.73 3.11,1.05 6.35,1.5 9.56,1.31 3.22,0 7.09,-0.22 10.04,-1.48 1.13,-0.42 2.23,-0.88 3.29,-1.44 0.93,-0.48 1.8,-1.02 2.59,-1.63 2.49,-1.74 4.44,-3.95 5.62,-6.71 1.11,-2.28 1.81,-4.66 2.13,-7.12 0.22,-1.19 0.33,-2.37 0.33,-3.58 0,-1.12 0,-2.25 0,-3.38 l -0.2,-8.9 h -17.9 l -0.18,11.47 c 0,0.31 0,0.64 0,0.95 0,0.91 0.16,-0.49 -0.14,1.25 0,0.75 -0.15,1.69 -0.57,2.45 -0.38,0.87 -1.09,1.61 -1.95,2.19 -0.92,0.75 -2.71,0.91 -3.84,0.91 -0.77,0 -2.1,-0.06 -2.88,-0.41 -1.45,-0.51 -0.14,0.06 -0.87,-0.38 -0.3,-0.18 -0.56,-0.33 -0.77,-0.45 -1.21,-0.89 -1.92,-1.94 -2.14,-3.37 -0.09,-0.86 -0.14,-1.68 -0.14,-2.53 0,-0.92 0,-1.83 0,-2.75 v -52.4 c 0,-0.48 0.02,-0.95 0.07,-1.43 0.05,-0.59 0.07,-1.2 0.07,-1.8 0,-1.29 0.61,-2.8 1.16,-3.94 0.72,-1.51 3.82,-1.65 5.2,-1.65 0.49,0 -0.52,-0.08 0.67,0.06 0.53,0.06 0.98,0.07 1.36,0.06 0.82,0.12 1.54,0.4 2.29,0.92 1.18,0.69 1.99,1.65 2.22,3.06 0.15,0.76 0.26,1.58 0.26,2.36 0,0.88 0,1.76 0,2.64 l 0.18,13.78 18.28,-0.34 z m 47.36,20.52 h -8.78 v -44.08 h -18.13 v 99.01 h 18.13 v -38.56 h 8.78 v 38.56 h 18.14 v -99.01 h -18.14 z m 115.06,-0.4 v -43.68 h -18.14 v 99.01 h 24.93 c 0.93,0 1.86,0 2.79,0 0.9,0 1.79,-0.04 2.67,-0.14 2.51,-0.23 5.1,-0.93 7.46,-1.69 4.23,-1.21 6.27,-5.15 7.29,-9.14 1,-4.02 0.96,-9.94 0.96,-14.08 0,-1.84 0,-3.67 0,-5.51 0,-1.96 -0.09,-3.86 -0.3,-5.7 0,-0.74 -0.06,-1.42 -0.17,-2.14 -0.12,-0.76 -0.3,-1.51 -0.5,-2.25 -0.17,-0.58 -0.31,-1.16 -0.41,-1.75 -0.14,-0.82 -0.41,-1.58 -0.8,-2.27 -0.92,-1.85 -2.21,-3.31 -3.87,-4.3 0.96,-0.72 1.78,-1.64 2.5,-2.66 1.51,-2.03 2.31,-4.36 2.62,-6.79 0.26,-1.4 0.33,-2.83 0.33,-4.25 0,-1.75 0,-3.5 0,-5.24 v -10.35 c 0,-3.43 -0.04,-7.46 0.44,-10.85 0.34,-2.36 1.21,-4.84 2.12,-7.04 l 1.16,-2.86 h -19.38 l -0.32,1.69 c -0.19,1 -0.38,1.99 -0.6,2.97 -0.17,0.8 -0.35,1.6 -0.59,2.42 -0.2,0.83 -0.36,1.71 -0.42,2.56 -0.05,0.57 -0.17,1.2 -0.35,1.88 -0.12,0.82 -0.19,1.69 -0.19,2.52 0,0.71 0,1.42 0,2.14 v 12.5 c 0,1.6 -0.04,3.19 -0.14,4.79 -0.1,1.59 -0.24,3.15 -0.43,4.67 -0.1,0.54 -0.19,1.04 -0.29,1.57 -0.09,0.43 -0.21,0.9 -0.4,1.41 -0.2,0.73 -0.58,1.32 -1.01,1.72 -1.01,0.65 -2.04,0.91 -3.3,0.84 z m 67.59,39.37 v -23.68 h 18.65 v -15.97 h -18.5 v -27.29 h 20.75 v -16.11 h -39.18 v 99.01 h 39.18 v -15.96 z m 89.25,-59.49 c 0,-1.32 -0.05,-2.65 -0.16,-3.98 -0.11,-1.35 -0.33,-2.66 -0.63,-3.92 -0.23,-1.34 -0.63,-2.62 -1.19,-3.89 -0.61,-1.36 -1.43,-2.65 -2.34,-3.82 -1.74,-2.33 -4.59,-4.4 -7.01,-6.01 -4.01,-2.51 -9.26,-3.15 -13.9,-3.15 -4.59,0 -9.64,0.66 -13.73,3.01 -2.31,1.49 -4.98,3.42 -6.72,5.62 -1.95,2.65 -3.34,5.65 -3.72,8.95 -0.28,2.84 -0.46,5.7 -0.46,8.55 v 45.82 c 0,1.1 0.03,2.21 0.08,3.32 0.05,1.11 0.13,2.17 0.23,3.17 0,1.37 0.24,2.85 0.47,4.19 0.35,2.16 1.04,4.24 2,6.24 1.2,2.35 2.89,4.43 4.82,6.25 2.48,2.22 5.57,3.71 8.7,4.73 3.11,1.05 6.34,1.5 9.57,1.31 3.21,0 7.09,-0.22 10.04,-1.48 1.12,-0.42 2.23,-0.88 3.29,-1.44 0.92,-0.48 1.8,-1.02 2.58,-1.63 2.5,-1.75 4.45,-3.95 5.63,-6.71 1.11,-2.28 1.8,-4.65 2.12,-7.12 0.22,-1.19 0.33,-2.37 0.33,-3.58 0,-1.12 0,-2.25 0,-3.38 l -0.19,-8.9 h -17.9 l -0.19,11.47 c 0,0.31 0,0.64 0,0.95 0,0.91 0.16,-0.49 -0.14,1.25 0,0.75 -0.14,1.68 -0.57,2.44 -0.37,0.88 -1.08,1.61 -1.94,2.2 -0.93,0.75 -2.71,0.91 -3.85,0.91 -0.78,0 -2.08,-0.06 -2.88,-0.41 -1.43,-0.51 -0.12,0.07 -0.87,-0.38 -0.31,-0.18 -0.56,-0.34 -0.78,-0.45 -1.2,-0.89 -1.91,-1.94 -2.13,-3.38 -0.08,-0.85 -0.14,-1.67 -0.14,-2.52 0,-0.92 0,-1.83 0,-2.75 v -52.4 c 0,-0.48 0.03,-0.96 0.07,-1.43 0.06,-0.6 0.08,-1.2 0.08,-1.8 0,-1.29 0.6,-2.8 1.15,-3.94 0.73,-1.51 3.81,-1.65 5.2,-1.65 0.49,0 -0.5,-0.08 0.67,0.06 0.53,0.06 0.99,0.07 1.36,0.06 0.82,0.12 1.55,0.4 2.3,0.92 1.17,0.69 1.99,1.65 2.21,3.06 0.16,0.77 0.26,1.58 0.26,2.36 0,0.88 0,1.76 0,2.64 l 0.18,13.78 18.29,-0.34 z m 38.88,20.12 v -43.68 h -18.13 v 99.01 h 24.93 c 0.93,0 1.86,0 2.78,0 0.91,0 1.8,-0.04 2.68,-0.14 2.52,-0.23 5.09,-0.93 7.46,-1.69 4.22,-1.21 6.26,-5.15 7.29,-9.14 1,-4.01 0.96,-9.94 0.96,-14.08 0,-1.84 0,-3.67 0,-5.51 0,-1.95 -0.1,-3.86 -0.3,-5.7 0,-0.74 -0.05,-1.42 -0.18,-2.14 -0.11,-0.76 -0.29,-1.51 -0.5,-2.25 -0.16,-0.58 -0.3,-1.17 -0.41,-1.75 -0.14,-0.82 -0.41,-1.57 -0.79,-2.27 -0.92,-1.85 -2.21,-3.3 -3.87,-4.3 0.95,-0.72 1.78,-1.64 2.5,-2.66 1.5,-2.03 2.3,-4.36 2.62,-6.79 0.26,-1.4 0.33,-2.83 0.33,-4.25 0,-1.75 0,-3.5 0,-5.24 v -10.35 c 0,-3.43 -0.04,-7.46 0.43,-10.85 0.35,-2.36 1.23,-4.84 2.12,-7.04 l 1.17,-2.86 h -19.38 l -0.33,1.69 c -0.19,1 -0.38,1.99 -0.59,2.98 -0.17,0.79 -0.36,1.6 -0.58,2.41 -0.2,0.83 -0.36,1.71 -0.44,2.56 -0.04,0.57 -0.16,1.21 -0.35,1.88 -0.11,0.82 -0.18,1.69 -0.18,2.52 0,0.71 0,1.42 0,2.14 v 12.5 c 0,1.6 -0.05,3.19 -0.15,4.78 -0.09,1.6 -0.24,3.16 -0.42,4.69 -0.1,0.54 -0.2,1.04 -0.3,1.58 -0.08,0.42 -0.21,0.89 -0.39,1.38 -0.2,0.74 -0.57,1.33 -1.01,1.73 -1.01,0.64 -2.04,0.91 -3.3,0.84 z m 97.67,-18.63 c 0,-0.47 0,-0.94 0,-1.41 0,-1.1 -0.14,-2.21 -0.31,-3.22 -0.09,-1.23 -0.21,-2.42 -0.38,-3.64 -0.16,-1.2 -0.41,-2.4 -0.74,-3.58 -0.93,-3.27 -2.56,-6.22 -5.12,-8.5 -2.06,-1.84 -4.4,-3.26 -6.99,-4.17 -2.13,-0.78 -4.32,-1.4 -6.53,-1.71 -0.98,-0.17 -1.98,-0.3 -2.98,-0.3 -0.62,0 -1.25,0 -1.88,0 -1.48,0 -3.04,0.21 -4.5,0.43 -2.07,0.29 -4.14,0.8 -6.22,1.48 -1.01,0.46 -2.07,0.97 -3.06,1.51 -1.06,0.58 -2.12,1.27 -3.19,2.05 -2.14,1.91 -3.73,4.31 -4.77,6.93 -0.7,1.57 -1.18,3.2 -1.5,4.89 -0.41,2.28 -0.48,4.78 -0.48,7.09 v 76.11 h 17.83 v -75.44 c 0,-1.25 0.09,-2.49 0.27,-3.71 0.22,-1.41 0.46,-2.77 0.71,-4.09 0.68,-2.43 3.16,-2.75 5.37,-2.75 0.48,0 -0.51,-0.08 0.67,0.05 0.52,0.06 0.98,0.08 1.37,0.07 0.73,0.1 1.47,0.36 2.12,0.93 1.08,0.77 1.7,1.81 1.91,3.11 0.37,2.32 0.42,4.86 0.42,7.2 v 74.63 h 17.98 z m 39.34,-25.05 h -17.99 v 99.01 h 17.99 z m 51.8,83.71 v -83.71 h -18.43 v 83.71 h -16.09 v 15.3 h 51.06 v -15.3 z m 83.46,-31.45 -8.34,-52.26 h -15.42 l -8.19,51.94 v -51.94 h -17.22 v 99.01 h 23.79 l 9.58,-52.77 8.44,52.77 h 24.44 v -99.01 h -17.08 z m 58.36,30.79 v -23.68 h 18.65 v -15.97 h -18.5 v -27.29 h 20.75 v -16.11 h -39.18 v 99.01 h 39.18 v -15.96 z m 55.89,-29.92 0.92,-53.13 h -17.27 v 99.01 h 18.71 l 12.86,-49.78 -0.46,49.78 h 17.4 v -99.01 h -19.19 z m 84.11,30.58 v -83.71 h -18.42 v 83.71 h -16.09 v 15.3 h 51.06 v -15.3 z m 83.8,-40.39 -38.84,18.03 v 17.26 l 57.99,-28.07 v -13.35 l -57.99,-28.22 v 16.05 z m -750.01,40.13 v -25.15 h 4.55 c 1.1,0 2.46,0.12 3.5,0.62 0.54,0.24 1,1.57 1.16,2.15 0.19,0.51 0.29,1.22 0.35,1.75 0.11,1.07 0.13,2.19 0.14,3.34 0.1,1.35 0.14,2.75 0.14,4.11 0,1.55 0,3.09 0,4.63 0,1.01 0,2.02 0,3.03 0,0.88 -0.09,1.8 -0.28,2.77 -0.04,0.44 -0.29,2 -0.75,2.41 -0.61,0.36 -3.06,0.36 -3.79,0.34 z m 195.73,0 v -25.15 h 4.54 c 1.1,0 2.48,0.12 3.51,0.62 0.54,0.24 0.99,1.57 1.16,2.15 0.18,0.5 0.28,1.22 0.34,1.76 0.12,1.06 0.15,2.19 0.15,3.33 0.1,1.35 0.14,2.75 0.14,4.11 0,1.55 0,3.09 0,4.63 0,1.01 0,2.02 0,3.03 0,0.87 -0.09,1.8 -0.28,2.76 -0.04,0.44 -0.29,2.02 -0.74,2.42 -0.62,0.36 -3.07,0.36 -3.81,0.34 h -5.01" /><path
         id="path64"
         style="fill:#2e3596;fill-opacity:1;fill-rule:evenodd;stroke:none"
         d="m 2039.82,2707.22 h 1255.32 v -12.01 H 2039.82 v 12.01" /><path
         id="path66"
         style="fill:#2e3596;fill-opacity:1;fill-rule:evenodd;stroke:none"
         d="M 146.805,969.746 H 299.617 V 816.934 H 146.805 v 152.812" /><path
         id="path68"
         style="fill:#2e3596;fill-opacity:1;fill-rule:nonzero;stroke:none"
         d="m 350.859,819.137 h 44.121 v 152.394 h -44.121 z m 67.246,53.465 c 0,-8.875 0.93,-16.524 2.786,-22.875 1.855,-6.348 4.535,-11.61 8.082,-15.821 3.543,-4.176 7.914,-7.472 13.047,-9.894 5.132,-2.418 11.031,-4.106 17.621,-5.121 6.625,-0.985 13.914,-1.473 21.867,-1.438 h 53.062 c 9.934,-0.035 18.743,0.141 26.496,0.559 7.715,0.461 14.379,1.441 20.008,2.984 5.629,1.543 10.266,3.965 13.91,7.297 3.641,3.297 6.36,7.789 8.114,13.473 1.757,5.683 2.621,12.875 2.621,21.574 v 43.359 h -98.977 v -31.574 h 54.856 v -4.418 c -0.035,-3.648 -0.696,-6.594 -1.989,-8.805 -1.289,-2.246 -3.015,-3.894 -5.199,-5.054 -2.187,-1.121 -4.672,-1.856 -7.387,-2.243 -2.75,-0.386 -5.562,-0.562 -8.48,-0.527 h -47.102 c -5.531,-0.035 -10.136,0.387 -13.781,1.297 -3.64,0.914 -6.488,2.492 -8.578,4.809 -2.086,2.312 -3.543,5.543 -4.406,9.718 -0.86,4.137 -1.289,9.469 -1.258,15.961 v 18.942 c -0.031,6.492 0.398,11.824 1.258,16 0.863,4.14 2.32,7.363 4.406,9.683 2.09,2.313 4.938,3.891 8.578,4.805 3.645,0.914 8.25,1.332 13.781,1.297 h 47.895 c 3.547,0.035 6.691,-0.141 9.441,-0.527 2.75,-0.383 5.071,-1.157 6.993,-2.317 1.882,-1.156 3.343,-2.875 4.335,-5.152 0.993,-2.285 1.493,-5.301 1.493,-9.055 h 43.324 v 4.84 c 0.066,5.969 -0.328,11.437 -1.129,16.488 -0.793,5.024 -2.285,9.547 -4.535,13.543 -2.219,3.965 -5.434,7.371 -9.668,10.176 -4.215,2.805 -9.742,4.914 -16.531,6.422 -6.825,1.469 -15.207,2.211 -25.176,2.211 h -66.375 c -7.953,0.031 -15.242,-0.461 -21.867,-1.442 -6.59,-1.015 -12.489,-2.699 -17.621,-5.121 -5.133,-2.418 -9.504,-5.718 -13.047,-9.894 -3.547,-4.207 -6.227,-9.473 -8.082,-15.821 -1.856,-6.351 -2.786,-13.961 -2.786,-22.875 z m 252.473,61.043 h 68.961 c 4.641,0.07 8.445,-0.317 11.465,-1.157 2.976,-0.808 5.195,-2.386 6.652,-4.703 1.461,-2.316 2.157,-5.683 2.157,-10.14 v -5.051 c 0.031,-3.649 -0.5,-6.629 -1.559,-9.016 -1.094,-2.351 -2.816,-4.105 -5.199,-5.262 -2.418,-1.156 -5.567,-1.718 -9.543,-1.718 H 670.578 Z M 626.457,819.137 h 44.121 v 39.57 h 69.36 c 4.539,0.035 8.152,-0.629 10.796,-1.965 2.653,-1.332 4.539,-3.539 5.664,-6.664 1.125,-3.125 1.657,-7.332 1.625,-12.633 v -18.308 h 44.118 v 25.89 c -0.032,6.211 -0.661,11.368 -1.918,15.473 -1.227,4.102 -2.985,7.367 -5.168,9.82 -2.223,2.457 -4.77,4.317 -7.649,5.578 -2.918,1.297 -6,2.207 -9.308,2.805 v 0.426 c 5.031,1.262 9.175,2.98 12.418,5.121 3.214,2.137 5.734,4.77 7.523,7.855 1.75,3.09 3.012,6.668 3.707,10.739 0.695,4.066 1.024,8.664 0.996,13.75 v 9.683 c 0.028,6.871 -0.601,13.086 -1.957,18.629 -1.359,5.539 -3.644,10.278 -6.859,14.278 -3.242,3.961 -7.645,7.019 -13.246,9.121 -5.567,2.14 -12.617,3.191 -21.071,3.226 H 626.457 V 819.137" /><path
         id="path70"
         style="fill:#373f3f;fill-opacity:1;fill-rule:nonzero;stroke:none"
         d="m 843.188,840.75 c -0.02,-4.254 0.511,-7.859 1.585,-10.754 1.063,-2.926 2.75,-5.258 5.09,-7 2.321,-1.766 5.375,-3.035 9.141,-3.808 3.766,-0.766 8.344,-1.153 13.738,-1.129 h 22.223 c 5.332,0 9.914,0.203 13.738,0.632 3.824,0.454 7,1.18 9.543,2.219 2.547,1.02 4.563,2.426 6.027,4.192 1.465,1.769 2.524,3.964 3.133,6.613 0.61,2.652 0.918,5.797 0.899,9.445 0.039,2.492 -0.121,4.871 -0.453,7.133 -0.325,2.246 -1.016,4.352 -2.075,6.254 -1.078,1.902 -2.707,3.555 -4.882,4.961 -2.2,1.426 -5.129,2.512 -8.832,3.305 -3.684,0.773 -8.329,1.156 -13.922,1.179 h -16.243 c -3.035,0 -5.472,0.071 -7.347,0.227 -1.871,0.133 -3.274,0.363 -4.254,0.703 -0.977,0.316 -1.629,0.723 -1.973,1.246 -0.324,0.52 -0.488,1.152 -0.469,1.902 -0.019,1.18 0.184,2.129 0.61,2.809 0.43,0.703 1.223,1.223 2.363,1.562 1.156,0.34 2.785,0.567 4.906,0.657 2.137,0.113 4.883,0.16 8.243,0.132 3.476,0 6.308,-0.042 8.484,-0.156 2.18,-0.136 3.848,-0.363 5.047,-0.679 1.203,-0.34 2.097,-0.813 2.668,-1.45 0.57,-0.632 0.996,-1.445 1.262,-2.468 h 23.449 c -0.024,3.265 -0.332,6.07 -0.922,8.449 -0.586,2.379 -1.645,4.394 -3.133,6 -1.484,1.633 -3.578,2.926 -6.289,3.898 -2.688,0.973 -6.164,1.676 -10.398,2.082 -4.254,0.43 -9.426,0.637 -15.528,0.637 h -16.363 c -4.055,0.023 -7.816,-0.184 -11.258,-0.68 -3.461,-0.476 -6.488,-1.406 -9.074,-2.761 -2.586,-1.383 -4.602,-3.379 -6.047,-6.028 -1.441,-2.629 -2.176,-6.094 -2.195,-10.371 -0.02,-4.738 0.425,-8.68 1.363,-11.824 0.914,-3.149 2.461,-5.668 4.598,-7.5 2.16,-1.836 5.066,-3.149 8.711,-3.941 3.664,-0.79 8.222,-1.18 13.656,-1.2 h 21.98 c 2.746,0 4.844,-0.179 6.332,-0.566 1.461,-0.387 2.481,-0.996 3.032,-1.856 0.546,-0.839 0.816,-1.929 0.777,-3.285 0.016,-1.043 -0.188,-1.902 -0.613,-2.582 -0.43,-0.683 -1.145,-1.199 -2.18,-1.586 -1.039,-0.363 -2.465,-0.636 -4.277,-0.793 -1.809,-0.136 -4.09,-0.203 -6.856,-0.203 h -8.305 c -3.296,0 -5.921,0.156 -7.875,0.453 -1.972,0.317 -3.421,0.746 -4.378,1.313 -0.954,0.566 -1.586,1.246 -1.868,2.015 -0.304,0.793 -0.429,1.653 -0.41,2.602 z m 93.707,4.758 c 0.019,-4.551 0.531,-8.426 1.527,-11.617 1,-3.192 2.359,-5.844 4.09,-7.907 1.726,-2.058 3.703,-3.687 5.902,-4.843 2.219,-1.157 4.535,-1.953 6.981,-2.426 2.421,-0.453 4.843,-0.68 7.269,-0.656 h 35.043 c 2.423,-0.024 4.843,0.203 7.293,0.656 2.42,0.473 4.74,1.269 6.96,2.426 2.19,1.156 4.17,2.785 5.9,4.843 1.73,2.063 3.09,4.715 4.09,7.907 1,3.191 1.5,7.066 1.52,11.617 v 16.582 c -0.02,4.551 -0.52,8.426 -1.52,11.621 -1,3.195 -2.36,5.84 -4.09,7.902 -1.73,2.063 -3.71,3.696 -5.9,4.848 -2.22,1.156 -4.54,1.945 -6.96,2.422 -2.45,0.453 -4.87,0.683 -7.293,0.66 h -35.043 c -2.426,0.023 -4.848,-0.207 -7.269,-0.66 -2.446,-0.477 -4.762,-1.266 -6.981,-2.422 -2.199,-1.152 -4.176,-2.785 -5.902,-4.848 -1.731,-2.062 -3.09,-4.707 -4.09,-7.902 -0.996,-3.195 -1.508,-7.07 -1.527,-11.621 z m 23.445,11.555 c 0,3.281 0.59,5.863 1.754,7.769 1.179,1.879 2.945,3.215 5.328,4.008 2.359,0.769 5.336,1.152 8.914,1.133 h 5.617 c 3.77,0.019 6.844,-0.137 9.223,-0.473 2.379,-0.344 4.211,-0.934 5.492,-1.77 1.285,-0.839 2.18,-1.992 2.668,-3.492 0.488,-1.488 0.714,-3.371 0.694,-5.683 v -9.512 c 0.02,-2.289 -0.206,-4.188 -0.694,-5.684 -0.488,-1.496 -1.383,-2.652 -2.668,-3.488 -1.281,-0.84 -3.113,-1.426 -5.492,-1.769 -2.379,-0.317 -5.453,-0.5 -9.223,-0.473 h -5.617 c -3.578,-0.027 -6.555,0.363 -8.914,1.129 -2.383,0.797 -4.149,2.129 -5.328,4.031 -1.164,1.883 -1.754,4.461 -1.754,7.75 z m 75.39,-37.918 h 23.44 v 98.39 h -23.44 z m 120.69,69.308 h -23.44 v -34.926 c 0,-3.304 -0.66,-6.089 -1.92,-8.312 -1.28,-2.242 -3.09,-3.938 -5.47,-5.074 -2.38,-1.133 -5.25,-1.696 -8.61,-1.696 h -5.37 c -5.11,0 -8.92,0.836 -11.42,2.535 -2.51,1.696 -3.74,4.258 -3.73,7.657 v 39.816 h -23.44 v -39.816 c 0.02,-4.961 0.55,-9.176 1.57,-12.637 1.03,-3.492 2.44,-6.344 4.23,-8.586 1.79,-2.246 3.84,-3.988 6.14,-5.281 2.33,-1.27 4.79,-2.215 7.37,-2.781 2.61,-0.59 5.23,-0.954 7.86,-1.114 2.65,-0.136 5.19,-0.203 7.63,-0.179 4.2,-0.024 7.89,0.312 11.13,1.015 3.22,0.727 5.99,1.973 8.26,3.762 2.31,1.766 4.14,4.258 5.52,7.453 h 0.25 v -11.144 h 23.44 z m 18.12,-46.203 c 0.02,-4.758 0.75,-8.723 2.17,-11.871 1.43,-3.125 3.36,-5.617 5.87,-7.406 2.48,-1.813 5.33,-3.082 8.55,-3.828 3.21,-0.747 6.65,-1.11 10.27,-1.086 h 9.28 c 4.66,0.023 8.68,0.613 12.03,1.789 3.36,1.156 6.09,2.785 8.22,4.89 2.14,2.086 3.73,4.555 4.75,7.364 1.02,2.808 1.5,5.89 1.5,9.195 v 8.426 h -20.51 v -4.621 c 0.02,-2.106 -0.25,-3.782 -0.82,-4.981 -0.57,-1.223 -1.54,-2.086 -2.97,-2.582 -1.4,-0.5 -3.36,-0.75 -5.86,-0.726 -1.87,-0.024 -3.5,0.136 -4.84,0.476 -1.35,0.34 -2.39,0.953 -3.1,1.856 -0.73,0.906 -1.1,2.218 -1.1,3.921 v 26.637 h 36.4 v 18.75 h -36.4 v 16.313 h -23.44 v -16.313 h -11.73 v -18.75 h 11.73 z m 97,46.203 h -23.45 v -69.308 h 23.45 z m 0,29.082 h -23.45 v -20.383 h 23.45 z m 12.25,-72.027 c 0.03,-4.551 0.53,-8.426 1.53,-11.617 1,-3.192 2.36,-5.844 4.09,-7.907 1.73,-2.058 3.7,-3.687 5.91,-4.843 2.21,-1.157 4.54,-1.953 6.98,-2.426 2.41,-0.453 4.84,-0.68 7.26,-0.656 h 35.05 c 2.42,-0.024 4.84,0.203 7.28,0.656 2.43,0.473 4.75,1.269 6.97,2.426 2.19,1.156 4.16,2.785 5.9,4.843 1.73,2.063 3.09,4.715 4.09,7.907 1,3.191 1.5,7.066 1.53,11.617 v 16.582 c -0.03,4.551 -0.53,8.426 -1.53,11.621 -1,3.195 -2.36,5.84 -4.09,7.902 -1.74,2.063 -3.71,3.696 -5.9,4.848 -2.22,1.156 -4.54,1.945 -6.97,2.422 -2.44,0.453 -4.86,0.683 -7.28,0.66 h -35.05 c -2.42,0.023 -4.85,-0.207 -7.26,-0.66 -2.44,-0.477 -4.77,-1.266 -6.98,-2.422 -2.21,-1.152 -4.18,-2.785 -5.91,-4.848 -1.73,-2.062 -3.09,-4.707 -4.09,-7.902 -1,-3.195 -1.5,-7.07 -1.53,-11.621 z m 23.45,11.555 c 0,3.281 0.6,5.863 1.75,7.769 1.18,1.879 2.96,3.215 5.33,4.008 2.36,0.769 5.34,1.152 8.92,1.133 h 5.62 c 3.77,0.019 6.84,-0.137 9.21,-0.473 2.39,-0.344 4.22,-0.934 5.5,-1.77 1.29,-0.839 2.18,-1.992 2.67,-3.492 0.49,-1.488 0.71,-3.371 0.69,-5.683 v -9.512 c 0.02,-2.289 -0.2,-4.188 -0.69,-5.684 -0.49,-1.496 -1.38,-2.652 -2.67,-3.488 -1.28,-0.84 -3.11,-1.426 -5.5,-1.769 -2.37,-0.317 -5.44,-0.5 -9.21,-0.473 h -5.62 c -3.58,-0.027 -6.56,0.363 -8.92,1.129 -2.37,0.797 -4.15,2.129 -5.33,4.031 -1.15,1.883 -1.75,4.461 -1.75,7.75 z m 74.05,-37.918 h 23.44 v 34.925 c 0.02,3.309 0.65,6.094 1.92,8.317 1.28,2.242 3.11,3.937 5.49,5.07 2.38,1.133 5.23,1.699 8.59,1.699 h 5.37 c 5.13,0 8.94,-0.84 11.42,-2.535 2.5,-1.699 3.75,-4.262 3.72,-7.656 v -39.82 h 23.45 v 39.82 c -0.02,4.961 -0.55,9.172 -1.56,12.637 -1.02,3.488 -2.45,6.343 -4.24,8.586 -1.79,2.242 -3.83,4.007 -6.14,5.273 -2.33,1.293 -4.79,2.223 -7.37,2.789 -2.61,0.59 -5.24,0.953 -7.86,1.109 -2.64,0.137 -5.19,0.207 -7.63,0.184 -4.2,0.023 -7.9,-0.32 -11.14,-1.02 -3.21,-0.726 -5.98,-1.972 -8.26,-3.761 -2.3,-1.766 -4.13,-4.258 -5.51,-7.453 h -0.25 v 11.144 h -23.44 z m 93.58,21.605 c -0.02,-4.254 0.51,-7.859 1.59,-10.754 1.06,-2.926 2.74,-5.258 5.08,-7 2.32,-1.766 5.38,-3.035 9.14,-3.808 3.77,-0.766 8.35,-1.153 13.74,-1.129 h 22.22 c 5.34,0 9.91,0.203 13.74,0.632 3.83,0.454 7,1.18 9.55,2.219 2.54,1.02 4.56,2.426 6.02,4.192 1.47,1.769 2.53,3.964 3.14,6.613 0.61,2.652 0.91,5.797 0.89,9.445 0.04,2.492 -0.12,4.871 -0.44,7.133 -0.33,2.246 -1.02,4.352 -2.08,6.254 -1.08,1.902 -2.71,3.555 -4.89,4.961 -2.19,1.426 -5.12,2.512 -8.83,3.305 -3.68,0.773 -8.32,1.156 -13.92,1.179 h -16.24 c -3.03,0 -5.47,0.071 -7.35,0.227 -1.87,0.133 -3.28,0.363 -4.25,0.703 -0.98,0.316 -1.63,0.723 -1.97,1.246 -0.33,0.52 -0.49,1.152 -0.47,1.902 -0.02,1.18 0.18,2.129 0.6,2.809 0.44,0.703 1.23,1.223 2.37,1.562 1.15,0.34 2.79,0.567 4.91,0.657 2.13,0.113 4.88,0.16 8.24,0.132 3.47,0 6.3,-0.042 8.48,-0.156 2.18,-0.136 3.85,-0.363 5.05,-0.679 1.2,-0.34 2.1,-0.813 2.67,-1.45 0.56,-0.632 1,-1.445 1.26,-2.468 h 23.44 c -0.02,3.265 -0.32,6.07 -0.91,8.449 -0.59,2.379 -1.65,4.394 -3.14,6 -1.48,1.633 -3.58,2.926 -6.28,3.898 -2.69,0.973 -6.17,1.676 -10.41,2.082 -4.25,0.43 -9.42,0.637 -15.52,0.637 h -16.37 c -4.05,0.023 -7.81,-0.184 -11.25,-0.68 -3.46,-0.476 -6.49,-1.406 -9.08,-2.761 -2.58,-1.383 -4.6,-3.379 -6.05,-6.028 -1.44,-2.629 -2.17,-6.094 -2.19,-10.371 -0.02,-4.738 0.43,-8.68 1.36,-11.824 0.92,-3.149 2.47,-5.668 4.6,-7.5 2.16,-1.836 5.07,-3.149 8.72,-3.941 3.66,-0.79 8.22,-1.18 13.65,-1.2 h 21.98 c 2.74,0 4.84,-0.179 6.33,-0.566 1.46,-0.387 2.48,-0.996 3.03,-1.856 0.55,-0.839 0.82,-1.929 0.77,-3.285 0.02,-1.043 -0.18,-1.902 -0.6,-2.582 -0.43,-0.683 -1.15,-1.199 -2.18,-1.586 -1.04,-0.363 -2.47,-0.636 -4.28,-0.793 -1.81,-0.136 -4.09,-0.203 -6.86,-0.203 h -8.3 c -3.3,0 -5.92,0.156 -7.88,0.453 -1.97,0.317 -3.42,0.746 -4.37,1.313 -0.96,0.566 -1.59,1.246 -1.88,2.015 -0.3,0.793 -0.42,1.653 -0.4,2.602 h -24.18" /><path
         id="path72"
         style="fill:#373f3f;fill-opacity:1;fill-rule:nonzero;stroke:none"
         d="m 146.805,696.09 v 9.113 l 52.715,22.258 v -9.711 l -41.805,-17.16 41.805,-17.305 v -9.73 z m 131.543,-34.801 v 70.191 h -26.219 v 9.395 h 63.074 v -9.395 h -26.332 v -70.191 z m 54.367,0 v 79.586 h 57.535 v -9.395 h -47.008 v -24.367 h 44.028 v -9.34 h -44.028 v -27.089 h 48.86 v -9.395 z m 137.199,27.902 10.543,-2.664 c -2.207,-8.636 -6.191,-15.234 -11.914,-19.793 -5.746,-4.535 -12.75,-6.8 -21.051,-6.8 -8.582,0 -15.547,1.742 -20.922,5.23 -5.375,3.496 -9.468,8.555 -12.265,15.176 -2.801,6.633 -4.207,13.746 -4.207,21.344 0,8.285 1.574,15.511 4.742,21.679 3.172,6.172 7.672,10.86 13.527,14.067 5.836,3.207 12.27,4.797 19.293,4.797 7.965,0 14.653,-2.02 20.086,-6.075 5.426,-4.062 9.207,-9.75 11.336,-17.105 l -10.355,-2.445 c -1.856,5.796 -4.52,10.003 -8.043,12.656 -3.5,2.648 -7.911,3.965 -13.246,3.965 -6.118,0 -11.211,-1.465 -15.329,-4.395 -4.113,-2.945 -7.004,-6.875 -8.652,-11.82 -1.668,-4.93 -2.5,-10.028 -2.5,-15.266 0,-6.785 0.984,-12.676 2.945,-17.734 1.985,-5.039 5.043,-8.82 9.211,-11.32 4.168,-2.504 8.672,-3.747 13.528,-3.747 5.894,0 10.875,1.707 14.968,5.098 4.098,3.406 6.86,8.465 8.305,15.152 z m 30.316,-27.902 v 79.586 h 10.543 v -32.687 h 41.36 v 32.687 h 10.543 v -79.586 h -10.543 v 37.504 h -41.36 v -37.504 z m 129.258,0 v 79.586 h 35.278 c 7.097,0 12.492,-0.723 16.179,-2.152 3.688,-1.426 6.633,-3.946 8.856,-7.559 2.207,-3.629 3.301,-7.633 3.301,-12.008 0,-5.648 -1.817,-10.394 -5.485,-14.265 -3.656,-3.875 -9.304,-6.34 -16.937,-7.395 2.797,-1.332 4.91,-2.648 6.355,-3.969 3.074,-2.812 5.988,-6.355 8.746,-10.578 l 13.844,-21.66 h -13.25 l -10.523,16.566 c -3.079,4.762 -5.618,8.43 -7.618,10.95 -1.98,2.539 -3.761,4.32 -5.336,5.32 -1.578,1.016 -3.171,1.723 -4.8,2.133 -1.207,0.234 -3.153,0.367 -5.875,0.367 h -12.211 v -35.336 z m 10.524,44.453 h 22.644 c 4.801,0 8.578,0.5 11.285,1.496 2.723,1.004 4.782,2.598 6.188,4.785 1.406,2.188 2.109,4.559 2.109,7.133 0,3.762 -1.347,6.86 -4.093,9.285 -2.719,2.426 -7.04,3.629 -12.95,3.629 h -25.183 z m 76.308,-44.453 v 79.586 h 57.539 v -9.395 h -47.015 v -24.367 h 44.031 v -9.34 h -44.031 v -27.089 h 48.867 v -9.395 z m 137.196,27.902 10.547,-2.664 c -2.208,-8.636 -6.188,-15.234 -11.918,-19.793 -5.743,-4.535 -12.747,-6.8 -21.047,-6.8 -8.582,0 -15.547,1.742 -20.918,5.23 -5.379,3.496 -9.473,8.555 -12.27,15.176 -2.801,6.633 -4.207,13.746 -4.207,21.344 0,8.285 1.574,15.511 4.742,21.679 3.168,6.172 7.672,10.86 13.528,14.067 5.836,3.207 12.269,4.797 19.289,4.797 7.968,0 14.66,-2.02 20.086,-6.075 5.429,-4.062 9.211,-9.75 11.343,-17.105 l -10.359,-2.445 c -1.855,5.796 -4.519,10.003 -8.043,12.656 -3.5,2.648 -7.914,3.965 -13.246,3.965 -6.117,0 -11.211,-1.465 -15.328,-4.395 -4.113,-2.945 -7.004,-6.875 -8.652,-11.82 -1.668,-4.93 -2.5,-10.028 -2.5,-15.266 0,-6.785 0.98,-12.676 2.945,-17.734 1.98,-5.039 5.039,-8.82 9.211,-11.32 4.168,-2.504 8.672,-3.747 13.527,-3.747 5.891,0 10.875,1.707 14.973,5.098 4.094,3.406 6.855,8.465 8.297,15.152 z m 30.172,-27.902 v 79.586 h 35.281 c 7.094,0 12.488,-0.723 16.179,-2.152 3.688,-1.426 6.633,-3.946 8.856,-7.559 2.203,-3.629 3.297,-7.633 3.297,-12.008 0,-5.648 -1.817,-10.394 -5.485,-14.265 -3.652,-3.875 -9.304,-6.34 -16.937,-7.395 2.797,-1.332 4.91,-2.648 6.355,-3.969 3.075,-2.812 5.989,-6.355 8.75,-10.578 l 13.84,-21.66 h -13.25 l -10.523,16.566 c -3.078,4.762 -5.617,8.43 -7.617,10.95 -1.981,2.539 -3.762,4.32 -5.336,5.32 -1.575,1.016 -3.168,1.723 -4.801,2.133 -1.203,0.234 -3.149,0.367 -5.875,0.367 h -12.211 v -35.336 z m 10.523,44.453 h 22.644 c 4.801,0 8.579,0.5 11.286,1.496 2.726,1.004 4.781,2.598 6.187,4.785 1.41,2.188 2.113,4.559 2.113,7.133 0,3.762 -1.351,6.86 -4.093,9.285 -2.723,2.426 -7.043,3.629 -12.953,3.629 h -25.184 z m 128.309,35.133 h 10.54 v -45.992 c 0,-7.988 -0.91,-14.344 -2.73,-19.051 -1.81,-4.703 -5.07,-8.519 -9.79,-11.465 -4.73,-2.965 -10.92,-4.433 -18.59,-4.433 -7.45,0 -13.567,1.281 -18.29,3.855 -4.742,2.559 -8.137,6.281 -10.156,11.156 -2.035,4.871 -3.039,11.504 -3.039,19.938 v 45.992 h 10.527 v -45.934 c 0,-6.914 0.649,-12.011 1.926,-15.269 1.277,-3.281 3.5,-5.801 6.617,-7.582 3.129,-1.781 6.965,-2.668 11.485,-2.668 7.75,0 13.27,1.762 16.57,5.281 3.28,3.504 4.93,10.25 4.93,20.238 z m 36.36,-79.586 v 79.586 h 10.52 v -79.586 z m 55.82,0 v 70.191 h -26.21 v 9.395 h 63.07 v -9.395 h -26.33 v -70.191 z m 53.82,0 v 79.586 h 15.86 l 18.83,-56.348 c 1.74,-5.246 3.02,-9.175 3.8,-11.789 0.9,2.895 2.31,7.157 4.24,12.77 l 19.05,55.367 h 14.17 v -79.586 h -10.15 v 66.613 l -23.13,-66.613 h -9.51 l -23.01,67.746 v -67.746 z m 99.65,0 v 79.586 h 57.54 v -9.395 h -47.01 v -24.367 h 44.03 v -9.34 h -44.03 v -27.089 h 48.86 v -9.395 z m 80.31,0 v 79.586 h 10.81 l 41.8,-62.484 v 62.484 h 10.1 v -79.586 h -10.8 l -41.81,62.539 v -62.539 z m 107.15,0 v 70.191 h -26.22 v 9.395 h 63.07 v -9.395 h -26.33 v -70.191 z m 104.36,34.801 -52.72,-22.535 v 9.73 l 41.75,17.305 -41.75,17.16 v 9.711 l 52.72,-22.258 v -9.113" /><path
         id="path74"
         style="fill:#373f3f;fill-opacity:1;fill-rule:nonzero;stroke:none"
         d="m 212.141,659.934 23.07,82.293 h 7.816 l -23.015,-82.293 h -7.871" /><path
         id="path76"
         style="fill:#373f3f;fill-opacity:1;fill-rule:evenodd;stroke:none"
         d="M 146.805,786.531 H 1559.99 v -7.238 H 146.805 v 7.238" /><path
         id="path78"
         style="fill:#2e3596;fill-opacity:1;fill-rule:evenodd;stroke:none"
         d="M 146.805,1005.23 H 1559.99 v -7.242 H 146.805 v 7.242" /><path
         id="path80"
         style="fill:#2e3596;fill-opacity:1;fill-rule:evenodd;stroke:none"
         d="m 1928.97,963.828 h 135.6 V 828.227 h -135.6 v 135.601" /><path
         id="path82"
         style="fill:#2e3596;fill-opacity:1;fill-rule:nonzero;stroke:none"
         d="m 2124.3,962.422 c 2.63,0 3.94,-1.41 3.94,-4.227 V 832 c 0,-2.82 -1.31,-4.234 -3.94,-4.234 h -19.38 c -2.75,0 -4.12,1.414 -4.12,4.234 v 126.195 c 0,2.817 1.37,4.227 4.12,4.227 z m 167.54,0 c 2.63,0 3.94,-1.41 3.94,-4.227 V 939.34 c 0,-2.949 -1.31,-4.426 -3.94,-4.426 h -89.87 c -4.67,0 -8.52,-0.418 -11.57,-1.25 -3.05,-0.836 -5.47,-2.242 -7.27,-4.23 -1.79,-1.989 -3.08,-4.653 -3.85,-7.981 -0.78,-3.34 -1.17,-7.57 -1.17,-12.699 v -27.699 c 0,-5.129 0.39,-9.395 1.17,-12.797 0.77,-3.399 2.06,-6.09 3.85,-8.078 1.8,-1.985 4.22,-3.399 7.27,-4.231 3.05,-0.836 6.9,-1.246 11.57,-1.246 h 59.19 c 3.11,0 5.38,0.863 6.82,2.594 1.43,1.73 2.15,4.777 2.15,9.137 v 15.578 c 0,1.668 -0.72,2.504 -2.15,2.504 h -52.56 c -2.63,0 -3.95,1.472 -3.95,4.425 v 14.43 c 0,2.945 1.32,4.422 3.95,4.422 h 74.8 c 3.59,0 5.39,-1.922 5.39,-5.77 v -44.824 c 0,-10.773 -1.92,-18.367 -5.74,-22.793 -3.83,-4.426 -9.33,-6.64 -16.51,-6.64 h -72.47 c -9.09,0 -16.8,0.898 -23.14,2.695 -6.34,1.797 -11.51,4.711 -15.51,8.75 -4.01,4.043 -6.94,9.301 -8.79,15.777 -1.86,6.477 -2.79,14.332 -2.79,23.563 v 33.086 c 0,9.238 0.93,17.058 2.79,23.472 1.85,6.411 4.78,11.637 8.79,15.68 4,4.039 9.17,6.984 15.51,8.844 6.34,1.859 14.05,2.789 23.14,2.789 z m 128.07,0 c 13.75,0 23.62,-3.332 29.6,-10.004 5.98,-6.668 8.97,-16.539 8.97,-29.621 v -10.965 c 0,-11.031 -2.09,-19.75 -6.28,-26.164 -4.18,-6.41 -11,-10.512 -20.45,-12.309 l 30.68,-40.781 c 0.6,-0.64 0.77,-1.605 0.53,-2.887 -0.23,-1.281 -1.19,-1.925 -2.87,-1.925 h -23.13 c -1.56,0 -2.64,0.195 -3.23,0.578 -0.6,0.386 -1.19,1.027 -1.8,1.926 l -28.34,40.011 h -57.94 V 832 c 0,-2.82 -1.31,-4.234 -3.94,-4.234 h -19.38 c -2.75,0 -4.12,1.414 -4.12,4.234 v 124.652 c 0,3.848 1.79,5.77 5.38,5.77 z m -74.26,-68.672 h 68.7 c 6.1,0 10.41,1.41 12.92,4.234 2.51,2.817 3.77,7.114 3.77,12.887 v 8.082 c 0,5.766 -1.26,10.063 -3.77,12.883 -2.51,2.82 -6.82,4.234 -12.92,4.234 h -66.37 c -1.55,0 -2.33,-0.773 -2.33,-2.308 V 893.75" /><path
         id="path84"
         style="fill:#202626;fill-opacity:1;fill-rule:nonzero;stroke:none"
         d="m 2589.38,910.238 c 1.68,0 2.52,-0.902 2.52,-2.703 v -12.019 c 0,-1.801 -0.84,-2.703 -2.52,-2.703 h -63.18 c -2.89,0 -4.9,-0.579 -6.02,-1.731 -1.12,-1.148 -1.68,-2.828 -1.68,-5.031 v -2.25 c 0,-2.008 0.56,-3.582 1.68,-4.735 1.12,-1.148 3.13,-1.726 6.02,-1.726 h 47.21 c 7.84,0 13.44,-1.754 16.81,-5.258 3.36,-3.504 5.04,-8.465 5.04,-14.871 v -8.41 c 0,-3.309 -0.37,-6.262 -1.12,-8.867 -0.75,-2.602 -1.98,-4.805 -3.71,-6.61 -1.73,-1.801 -4,-3.179 -6.79,-4.129 -2.81,-0.953 -6.26,-1.429 -10.37,-1.429 h -71.72 c -1.68,0 -2.52,0.906 -2.52,2.707 v 12.015 c 0,1.801 0.84,2.707 2.52,2.707 h 66.4 c 2.89,0 4.92,0.547 6.09,1.649 1.16,1.101 1.75,2.957 1.75,5.562 v 4.051 c 0,2.008 -0.59,3.559 -1.75,4.66 -1.17,1.102 -3.2,1.653 -6.09,1.653 h -47.07 c -7.84,0 -13.45,1.726 -16.81,5.179 -3.36,3.457 -5.04,8.489 -5.04,15.098 v 6.609 c 0,3.106 0.37,5.934 1.11,8.489 0.76,2.554 1.99,4.73 3.72,6.535 1.73,1.8 3.99,3.175 6.79,4.129 2.8,0.953 6.26,1.429 10.37,1.429 z m 92.73,0 c 6.25,0 11.53,-0.578 15.83,-1.73 4.29,-1.149 7.73,-2.953 10.29,-5.406 2.57,-2.454 4.41,-5.61 5.54,-9.465 1.11,-3.856 1.68,-8.485 1.68,-13.891 v -21.633 c 0,-5.41 -0.57,-10.039 -1.68,-13.898 -1.13,-3.856 -2.97,-7.008 -5.54,-9.465 -2.56,-2.449 -6,-4.227 -10.29,-5.332 -4.3,-1.102 -9.58,-1.652 -15.83,-1.652 h -39.64 c -6.35,0 -11.65,0.55 -15.9,1.652 -4.25,1.105 -7.66,2.883 -10.23,5.332 -2.57,2.457 -4.41,5.609 -5.53,9.465 -1.12,3.859 -1.68,8.488 -1.68,13.898 v 21.633 c 0,5.406 0.56,10.035 1.68,13.891 1.12,3.855 2.96,7.011 5.53,9.465 2.57,2.453 5.98,4.257 10.23,5.406 4.25,1.152 9.55,1.73 15.9,1.73 z m -52.95,-48.371 c 0,-3.203 0.23,-5.855 0.7,-7.961 0.47,-2.105 1.28,-3.781 2.45,-5.031 1.17,-1.254 2.73,-2.152 4.69,-2.707 1.96,-0.551 4.44,-0.824 7.43,-0.824 h 35.71 c 3.09,0 5.61,0.273 7.57,0.824 1.96,0.555 3.52,1.453 4.69,2.707 1.17,1.25 1.99,2.926 2.46,5.031 0.46,2.106 0.69,4.758 0.69,7.961 v 14.274 c 0,3.101 -0.23,5.707 -0.69,7.808 -0.47,2.102 -1.29,3.805 -2.46,5.11 -1.17,1.3 -2.73,2.199 -4.69,2.699 -1.96,0.504 -4.48,0.754 -7.57,0.754 h -35.71 c -2.99,0 -5.47,-0.25 -7.43,-0.754 -1.96,-0.5 -3.52,-1.399 -4.69,-2.699 -1.17,-1.305 -1.98,-3.008 -2.45,-5.11 -0.47,-2.101 -0.7,-4.707 -0.7,-7.808 z m 119.76,78.563 c 2.06,0 3.09,-1.102 3.09,-3.305 V 831.074 c 0,-2.203 -1.03,-3.308 -3.09,-3.308 h -13.72 c -2.06,0 -3.09,1.105 -3.09,3.308 v 106.051 c 0,2.203 1.03,3.305 3.09,3.305 z m 37.4,-30.192 c 2.06,0 3.08,-1.152 3.08,-3.457 v -43.414 c 0,-3.203 0.19,-5.855 0.56,-7.961 0.38,-2.101 1.08,-3.777 2.11,-5.031 1.02,-1.25 2.47,-2.152 4.34,-2.703 1.87,-0.551 4.34,-0.828 7.42,-0.828 h 36 c 3.08,0 5.6,0.277 7.56,0.828 1.97,0.551 3.53,1.453 4.7,2.703 1.16,1.254 1.98,2.93 2.45,5.031 0.47,2.106 0.7,4.758 0.7,7.961 v 43.414 c 0,2.305 1.03,3.457 3.08,3.457 h 13.73 c 2.06,0 3.08,-1.152 3.08,-3.457 v -48.668 c 0,-5.41 -0.56,-10.039 -1.68,-13.898 -1.12,-3.856 -2.97,-7.008 -5.54,-9.465 -2.56,-2.449 -6,-4.227 -10.29,-5.332 -4.3,-1.102 -9.57,-1.652 -15.83,-1.652 h -39.08 c -6.35,0 -11.65,0.55 -15.9,1.652 -4.24,1.105 -7.65,2.883 -10.22,5.332 -2.57,2.457 -4.41,5.609 -5.54,9.465 -1.12,3.859 -1.68,8.488 -1.68,13.898 v 48.668 c 0,2.305 1.08,3.457 3.22,3.457 z m 115.57,0 v 19.828 c 0,2.204 1.02,3.301 3.08,3.301 h 13.87 c 2.05,0 3.07,-1.097 3.07,-3.301 v -19.828 h 24.52 c 1.68,0 2.52,-0.902 2.52,-2.703 v -12.316 c 0,-1.809 -0.84,-2.707 -2.52,-2.707 h -24.52 V 857.66 c 0,-4.203 0.8,-7.285 2.39,-9.238 1.58,-1.953 4.71,-2.93 9.38,-2.93 h 13.59 c 1.68,0 2.52,-0.902 2.52,-2.703 v -12.316 c 0,-1.801 -0.84,-2.707 -2.52,-2.707 h -16.95 c -5.61,0 -10.23,0.55 -13.87,1.652 -3.64,1.105 -6.56,2.859 -8.75,5.262 -2.2,2.402 -3.71,5.504 -4.55,9.312 -0.85,3.805 -1.26,8.363 -1.26,13.668 v 34.852 h -13.31 c -1.68,0 -2.52,0.898 -2.52,2.707 v 12.316 c 0,1.801 0.84,2.703 2.52,2.703 z m 76.2,0 c 2.05,0 3.08,-1.152 3.08,-3.457 v -75.707 c 0,-2.203 -1.03,-3.308 -3.08,-3.308 h -13.73 c -2.05,0 -3.08,1.105 -3.08,3.308 v 75.707 c 0,2.305 1.03,3.457 3.08,3.457 z m 0,30.492 c 2.05,0 3.08,-1.101 3.08,-3.304 v -14.27 c 0,-2.304 -1.03,-3.457 -3.08,-3.457 h -13.73 c -2.15,0 -3.22,1.153 -3.22,3.457 v 14.27 c 0,2.203 1.07,3.304 3.22,3.304 z m 92.59,-30.492 c 6.25,0 11.53,-0.578 15.83,-1.73 4.29,-1.149 7.72,-2.953 10.29,-5.406 2.57,-2.454 4.41,-5.61 5.53,-9.465 1.12,-3.856 1.69,-8.485 1.69,-13.891 v -21.633 c 0,-5.41 -0.57,-10.039 -1.69,-13.898 -1.12,-3.856 -2.96,-7.008 -5.53,-9.465 -2.57,-2.449 -6,-4.227 -10.29,-5.332 -4.3,-1.102 -9.58,-1.652 -15.83,-1.652 h -39.64 c -6.35,0 -11.65,0.55 -15.9,1.652 -4.25,1.105 -7.66,2.883 -10.23,5.332 -2.57,2.457 -4.41,5.609 -5.53,9.465 -1.12,3.859 -1.68,8.488 -1.68,13.898 v 21.633 c 0,5.406 0.56,10.035 1.68,13.891 1.12,3.855 2.96,7.011 5.53,9.465 2.57,2.453 5.98,4.257 10.23,5.406 4.25,1.152 9.55,1.73 15.9,1.73 z m -52.95,-48.371 c 0,-3.203 0.23,-5.855 0.7,-7.961 0.46,-2.105 1.28,-3.781 2.45,-5.031 1.17,-1.254 2.73,-2.152 4.69,-2.707 1.97,-0.551 4.44,-0.824 7.43,-0.824 h 35.71 c 3.09,0 5.61,0.273 7.57,0.824 1.96,0.555 3.52,1.453 4.69,2.707 1.17,1.25 1.99,2.926 2.45,5.031 0.47,2.106 0.71,4.758 0.71,7.961 v 14.274 c 0,3.101 -0.24,5.707 -0.71,7.808 -0.46,2.102 -1.28,3.805 -2.45,5.11 -1.17,1.3 -2.73,2.199 -4.69,2.699 -1.96,0.504 -4.48,0.754 -7.57,0.754 H 3033 c -2.99,0 -5.46,-0.25 -7.43,-0.754 -1.96,-0.5 -3.52,-1.399 -4.69,-2.699 -1.17,-1.305 -1.99,-3.008 -2.45,-5.11 -0.47,-2.101 -0.7,-4.707 -0.7,-7.808 z m 175.93,48.371 c 6.26,0 11.54,-0.578 15.83,-1.73 4.3,-1.149 7.73,-2.953 10.3,-5.406 2.57,-2.454 4.41,-5.61 5.53,-9.465 1.12,-3.856 1.68,-8.485 1.68,-13.891 v -48.672 c 0,-2.203 -1.02,-3.308 -3.08,-3.308 h -13.73 c -2.05,0 -3.08,1.105 -3.08,3.308 v 43.559 c 0,3.109 -0.18,5.734 -0.56,7.887 -0.37,2.156 -1.1,3.855 -2.17,5.109 -1.08,1.254 -2.54,2.152 -4.41,2.703 -1.87,0.555 -4.3,0.828 -7.29,0.828 h -37.26 c -2.99,0 -5.46,-0.273 -7.42,-0.828 -1.96,-0.551 -3.53,-1.449 -4.7,-2.703 -1.16,-1.254 -1.98,-2.953 -2.44,-5.109 -0.47,-2.153 -0.71,-4.778 -0.71,-7.887 v -43.559 c 0,-2.203 -1.02,-3.308 -3.08,-3.308 h -13.72 c -2.15,0 -3.23,1.105 -3.23,3.308 v 48.672 c 0,5.406 0.56,10.035 1.68,13.891 1.13,3.855 2.97,7.011 5.54,9.465 2.57,2.453 5.98,4.257 10.22,5.406 4.25,1.152 9.55,1.73 15.9,1.73 z m 139.38,0 c 1.68,0 2.52,-0.902 2.52,-2.703 v -12.019 c 0,-1.801 -0.84,-2.703 -2.52,-2.703 h -63.18 c -2.89,0 -4.9,-0.579 -6.02,-1.731 -1.12,-1.148 -1.68,-2.828 -1.68,-5.031 v -2.25 c 0,-2.008 0.56,-3.582 1.68,-4.735 1.12,-1.148 3.13,-1.726 6.02,-1.726 h 47.21 c 7.85,0 13.45,-1.754 16.81,-5.258 3.36,-3.504 5.04,-8.465 5.04,-14.871 v -8.41 c 0,-3.309 -0.37,-6.262 -1.12,-8.867 -0.75,-2.602 -1.98,-4.805 -3.71,-6.61 -1.73,-1.801 -3.99,-3.179 -6.79,-4.129 -2.81,-0.953 -6.26,-1.429 -10.37,-1.429 h -71.72 c -1.68,0 -2.52,0.906 -2.52,2.707 v 12.015 c 0,1.801 0.84,2.707 2.52,2.707 h 66.4 c 2.89,0 4.93,0.547 6.09,1.649 1.17,1.101 1.75,2.957 1.75,5.562 v 4.051 c 0,2.008 -0.58,3.559 -1.75,4.66 -1.16,1.102 -3.2,1.653 -6.09,1.653 h -47.07 c -7.84,0 -13.45,1.726 -16.81,5.179 -3.36,3.457 -5.04,8.489 -5.04,15.098 v 6.609 c 0,3.106 0.37,5.934 1.12,8.489 0.75,2.554 1.98,4.73 3.71,6.535 1.73,1.8 4,3.175 6.8,4.129 2.8,0.953 6.25,1.429 10.36,1.429 h 68.36" /><path
         id="path86"
         style="fill:#62696c;fill-opacity:1;fill-rule:nonzero;stroke:none"
         d="m 2066.77,697.973 -41.97,18.25 v 10.101 l 41.97,18.153 v -11.899 l -29.27,-11.183 29.27,-11.614 z m 11.47,-8.008 15.17,63.277 h 8.8 l -15.32,-63.277 z m 55.75,1.039 v 50.84 h -18.15 v 10.355 h 48.63 v -10.355 h -18.11 v -50.84 z m 50.33,0 v 61.195 h 45.37 v -10.355 h -33.01 v -13.567 h 30.71 v -10.3 h -30.71 V 701.32 h 34.18 v -10.316 z m 108.06,22.496 11.96,-3.789 c -1.84,-6.68 -4.89,-11.641 -9.16,-14.891 -4.26,-3.234 -9.69,-4.855 -16.26,-4.855 -8.12,0 -14.8,2.777 -20.03,8.32 -5.23,5.555 -7.85,13.149 -7.85,22.77 0,10.187 2.64,18.093 7.89,23.734 5.26,5.629 12.17,8.453 20.75,8.453 7.48,0 13.56,-2.211 18.24,-6.644 2.79,-2.602 4.87,-6.364 6.26,-11.266 l -12.23,-2.922 c -0.72,3.176 -2.23,5.684 -4.54,7.524 -2.29,1.839 -5.08,2.75 -8.36,2.75 -4.53,0 -8.22,-1.625 -11.04,-4.891 -2.82,-3.246 -4.23,-8.52 -4.23,-15.816 0,-7.735 1.38,-13.25 4.17,-16.524 2.78,-3.293 6.4,-4.93 10.85,-4.93 3.29,0 6.11,1.04 8.47,3.133 2.37,2.082 4.06,5.371 5.11,9.844 z m 34.48,-22.496 v 61.195 h 12.37 v -24.078 h 24.21 v 24.078 h 12.35 v -61.195 h -12.35 v 26.758 h -24.21 v -26.758 z m 114.7,0 v 61.195 h 26.02 c 6.54,0 11.29,-0.554 14.25,-1.652 2.96,-1.098 5.35,-3.051 7.12,-5.856 1.78,-2.82 2.67,-6.027 2.67,-9.644 0,-4.59 -1.35,-8.395 -4.05,-11.387 -2.69,-2.976 -6.74,-4.871 -12.11,-5.644 2.68,-1.567 4.89,-3.274 6.63,-5.141 1.74,-1.863 4.07,-5.172 7.02,-9.934 l 7.48,-11.937 h -14.77 l -8.94,13.32 c -3.18,4.762 -5.34,7.75 -6.51,8.992 -1.17,1.239 -2.41,2.079 -3.72,2.551 -1.31,0.457 -3.37,0.684 -6.22,0.684 h -2.5 v -25.547 z m 12.37,35.32 h 9.14 c 5.92,0 9.63,0.242 11.11,0.742 1.46,0.5 2.62,1.368 3.46,2.594 0.83,1.227 1.25,2.75 1.25,4.586 0,2.07 -0.55,3.719 -1.65,4.984 -1.1,1.274 -2.65,2.071 -4.66,2.411 -0.99,0.132 -4,0.203 -9.01,0.203 h -9.64 z m 61.22,-35.32 v 61.195 h 45.37 v -10.355 h -33.02 v -13.567 h 30.72 v -10.3 H 2527.5 V 701.32 h 34.18 v -10.316 z m 108.05,22.496 11.97,-3.789 c -1.84,-6.68 -4.89,-11.641 -9.16,-14.891 -4.26,-3.234 -9.69,-4.855 -16.26,-4.855 -8.12,0 -14.8,2.777 -20.03,8.32 -5.23,5.555 -7.85,13.149 -7.85,22.77 0,10.187 2.63,18.093 7.89,23.734 5.26,5.629 12.17,8.453 20.75,8.453 7.47,0 13.56,-2.211 18.23,-6.644 2.8,-2.602 4.88,-6.364 6.27,-11.266 l -12.24,-2.922 c -0.71,3.176 -2.22,5.684 -4.53,7.524 -2.29,1.839 -5.08,2.75 -8.36,2.75 -4.54,0 -8.22,-1.625 -11.04,-4.891 -2.82,-3.246 -4.24,-8.52 -4.24,-15.816 0,-7.735 1.38,-13.25 4.18,-16.524 2.77,-3.293 6.4,-4.93 10.84,-4.93 3.29,0 6.11,1.04 8.48,3.133 2.36,2.082 4.06,5.371 5.1,9.844 z m 34.49,-22.496 v 61.195 h 26.01 c 6.54,0 11.29,-0.554 14.25,-1.652 2.96,-1.098 5.35,-3.051 7.13,-5.856 1.78,-2.82 2.66,-6.027 2.66,-9.644 0,-4.59 -1.35,-8.395 -4.04,-11.387 -2.7,-2.976 -6.74,-4.871 -12.12,-5.644 2.68,-1.567 4.89,-3.274 6.63,-5.141 1.74,-1.863 4.07,-5.172 7.02,-9.934 l 7.48,-11.937 h -14.77 l -8.94,13.32 c -3.17,4.762 -5.34,7.75 -6.51,8.992 -1.17,1.239 -2.41,2.079 -3.72,2.551 -1.31,0.457 -3.37,0.684 -6.22,0.684 h -2.5 v -25.547 z m 12.36,35.32 h 9.14 c 5.92,0 9.63,0.242 11.11,0.742 1.47,0.5 2.63,1.368 3.46,2.594 0.83,1.227 1.26,2.75 1.26,4.586 0,2.07 -0.56,3.719 -1.66,4.984 -1.09,1.274 -2.65,2.071 -4.66,2.411 -0.99,0.132 -4,0.203 -9.01,0.203 h -9.64 z m 61.14,25.875 h 12.35 v -33.14 c 0,-5.258 0.16,-8.676 0.46,-10.227 0.52,-2.512 1.79,-4.519 3.77,-6.031 2,-1.524 4.71,-2.278 8.17,-2.278 3.5,0 6.15,0.711 7.93,2.149 1.78,1.426 2.85,3.195 3.21,5.273 0.37,2.094 0.54,5.555 0.54,10.403 v 33.851 h 12.35 v -32.144 c 0,-7.352 -0.33,-12.535 -1,-15.575 -0.67,-3.035 -1.89,-5.585 -3.69,-7.675 -1.79,-2.082 -4.2,-3.75 -7.19,-4.989 -3.01,-1.242 -6.94,-1.851 -11.79,-1.851 -5.84,0 -10.27,0.668 -13.29,2.023 -3.02,1.356 -5.4,3.106 -7.15,5.258 -1.75,2.152 -2.91,4.414 -3.46,6.781 -0.81,3.504 -1.21,8.676 -1.21,15.532 z m 73.31,-61.195 v 61.195 h 12.35 v -61.195 z m 49.77,0 v 50.84 h -18.14 v 10.355 h 48.62 v -10.355 h -18.11 v -50.84 z m 50.17,0 v 61.195 h 18.49 l 11.1,-41.746 10.97,41.746 h 18.54 v -61.195 h -11.47 v 48.176 l -12.16,-48.176 h -11.89 l -12.11,48.176 v -48.176 z m 83.26,0 v 61.195 h 45.36 v -10.355 h -33.01 v -13.567 h 30.72 v -10.3 h -30.72 V 701.32 h 34.18 v -10.316 z m 69.01,0 v 61.195 h 12.02 l 25.05,-40.863 v 40.863 h 11.48 v -61.195 h -12.41 l -24.66,39.91 v -39.91 z m 87.26,0 v 50.84 h -18.15 v 10.355 h 48.63 v -10.355 h -18.11 v -50.84 z m 48.07,6.926 v 11.812 l 29.3,11.524 -29.3,11.402 v 11.727 l 42,-18.157 v -10.015 l -42,-18.293" /><path
         id="path88"
         style="fill:#2e3596;fill-opacity:1;fill-rule:evenodd;stroke:none"
         d="m 1928.97,792.707 h 1409.65 v -6.422 H 1928.97 v 6.422" /><path
         id="path90"
         style="fill:#202626;fill-opacity:1;fill-rule:evenodd;stroke:none"
         d="m 1928.97,810.254 h 1410.39 v -6.418 H 1928.97 v 6.418" /><path
         id="path92"
         style="fill:#2e3596;fill-opacity:1;fill-rule:evenodd;stroke:none"
         d="m 3870.82,1120.98 h 227.29 V 893.691 h -227.29 v 227.289" /><path
         id="path94"
         style="fill:#2e3596;fill-opacity:1;fill-rule:nonzero;stroke:none"
         d="m 4269.23,893.691 h -64.39 V 1121 h 64.39 z m 221.02,142.029 h 133.14 V 893.691 H 4480.6 c -18.03,0 -34.73,2.95 -50.07,8.836 -15.35,5.887 -28.57,13.985 -39.67,24.289 -11.09,10.309 -19.8,22.543 -26.13,36.7 -6.32,14.156 -9.48,29.504 -9.48,46.034 0,16.54 3.16,31.66 9.48,45.36 6.33,13.71 15.04,25.48 26.13,35.34 11.1,9.86 24.32,17.44 39.67,22.77 15.34,5.32 32.04,7.98 50.07,7.98 h 149.01 l -41.68,-59.12 H 4480.6 c -8.71,0 -16.79,-1.36 -24.26,-4.08 -7.46,-2.71 -13.94,-6.57 -19.44,-11.55 -5.49,-4.98 -9.79,-10.82 -12.9,-17.5 -3.12,-6.68 -4.68,-14.1 -4.68,-22.25 0,-8.16 1.51,-15.578 4.52,-22.258 3,-6.683 7.25,-12.402 12.75,-17.16 5.5,-4.758 11.98,-8.434 19.44,-11.043 7.47,-2.601 15.66,-3.906 24.57,-3.906 h 78.7 v 32.961 h -107.62 z m 517.77,-142.029 h -86.16 l -46.35,60.145 h -98.92 v -60.145 h -64.39 v 116.199 h 181.04 c 9.96,0 18.35,2.27 25.2,6.8 6.84,4.53 10.26,10.76 10.26,18.69 0,8.83 -3.11,15.46 -9.33,19.87 -6.22,4.42 -14.93,6.63 -26.13,6.63 H 4712.2 l 42,59.12 h 133.75 c 11.82,0 24.05,-1.19 36.71,-3.57 12.65,-2.37 24.16,-6.62 34.53,-12.74 10.36,-6.11 18.92,-14.39 25.66,-24.8 6.74,-10.42 10.1,-23.78 10.1,-40.09 0,-8.84 -1.24,-17.22 -3.72,-25.15 -2.5,-7.92 -6.07,-15.06 -10.74,-21.404 -4.66,-6.344 -10.37,-11.719 -17.1,-16.141 -6.75,-4.414 -14.37,-7.531 -22.87,-9.339 3.52,-2.946 7.46,-6.684 11.82,-11.211 4.36,-4.535 10.16,-10.762 17.42,-18.696 l 38.26,-44.168" /><path
         id="path96"
         style="fill:#202626;fill-opacity:1;fill-rule:nonzero;stroke:none"
         d="m 3950.71,809.742 c 10.84,0 19.09,-2.336 24.73,-7.004 5.63,-4.679 8.46,-11.738 8.46,-21.191 0,-5.238 -0.7,-9.957 -2.12,-14.172 -1.41,-4.211 -3.65,-7.754 -6.74,-10.629 -3.08,-2.879 -7.03,-5.086 -11.83,-6.625 -4.8,-1.539 -10.55,-2.312 -17.26,-2.312 h -82.35 l 17.58,26.5 h 66.89 c 3.26,0 5.64,0.589 7.14,1.769 1.5,1.184 2.24,3.11 2.24,5.777 0,2.676 -0.74,4.575 -2.24,5.704 -1.5,1.129 -3.88,1.695 -7.14,1.695 h -48.12 c -5.73,0 -10.66,0.719 -14.81,2.16 -4.14,1.434 -7.57,3.438 -10.31,6.004 -2.73,2.566 -4.75,5.676 -6.08,9.324 -1.32,3.641 -1.98,7.676 -1.98,12.094 0,4.824 0.73,9.215 2.18,13.172 1.45,3.953 3.7,7.316 6.74,10.09 3.04,2.773 6.96,4.929 11.77,6.468 4.8,1.543 10.56,2.313 17.25,2.313 h 76.81 l -17.58,-26.805 h -61.34 c -3.18,0 -5.54,-0.515 -7.08,-1.543 -1.54,-1.027 -2.31,-2.879 -2.31,-5.547 0,-2.668 0.77,-4.543 2.31,-5.621 1.54,-1.078 3.9,-1.621 7.08,-1.621 z m 122.41,42.832 c 21.51,0 37.65,-4.258 48.45,-12.789 10.8,-8.519 16.19,-21.98 16.19,-40.363 0,-18.488 -5.37,-31.992 -16.12,-40.52 -10.76,-8.523 -26.93,-12.789 -48.52,-12.789 -21.68,0 -37.88,4.266 -48.58,12.789 -10.72,8.528 -16.07,22.032 -16.07,40.52 0,18.383 5.38,31.844 16.13,40.363 10.76,8.531 26.92,12.789 48.52,12.789 z m 0,-79.652 c 6.87,0 12.69,0.336 17.45,1 4.75,0.668 8.61,1.98 11.57,3.93 2.95,1.953 5.09,4.648 6.41,8.086 1.32,3.445 1.99,7.937 1.99,13.484 0,5.547 -0.67,10.039 -1.99,13.484 -1.32,3.438 -3.46,6.11 -6.41,8.008 -2.96,1.902 -6.82,3.184 -11.57,3.852 -4.76,0.664 -10.58,1.004 -17.45,1.004 -6.87,0 -12.69,-0.34 -17.45,-1.004 -4.76,-0.668 -8.62,-1.95 -11.57,-3.852 -2.95,-1.898 -5.09,-4.57 -6.41,-8.008 -1.32,-3.445 -1.99,-7.937 -1.99,-13.484 0,-5.547 0.67,-10.039 1.99,-13.484 1.32,-3.438 3.46,-6.133 6.41,-8.086 2.95,-1.95 6.81,-3.262 11.57,-3.93 4.76,-0.664 10.58,-1 17.45,-1 z m 189.56,1.387 -17.72,-26.5 h -78.13 v 103.07 h 27.37 v -76.57 z m 139.19,18.488 c 0,-31.125 -18.37,-46.684 -55.13,-46.684 -10.67,0 -19.83,0.977 -27.49,2.93 -7.68,1.949 -14,4.879 -18.98,8.777 -4.97,3.907 -8.63,8.762 -10.97,14.559 -2.34,5.809 -3.5,12.613 -3.5,20.418 v 58.082 h 27.23 v -58.082 c 0,-3.801 0.44,-6.984 1.32,-9.555 0.88,-2.566 2.53,-4.644 4.96,-6.238 2.42,-1.59 5.84,-2.719 10.24,-3.391 4.41,-0.668 10.14,-1 17.19,-1 5.29,0 9.7,0.364 13.22,1.078 3.52,0.719 6.35,1.903 8.46,3.543 2.12,1.645 3.63,3.75 4.56,6.317 0.93,2.57 1.39,5.652 1.39,9.246 v 58.082 h 27.5 z m 140.51,58.082 -17.71,-26.805 h -31.6 v -76.265 h -27.36 v 76.265 h -41.52 l 17.72,26.805 z m 51.28,-103.07 h -27.37 v 103.07 h 27.37 z m 94.11,104.765 c 21.51,0 37.66,-4.258 48.45,-12.789 10.8,-8.519 16.2,-21.98 16.2,-40.363 0,-18.488 -5.38,-31.992 -16.13,-40.52 -10.75,-8.523 -26.92,-12.789 -48.52,-12.789 -21.67,0 -37.88,4.266 -48.58,12.789 -10.71,8.528 -16.06,22.032 -16.06,40.52 0,18.383 5.37,31.844 16.12,40.363 10.76,8.531 26.93,12.789 48.52,12.789 z m 0,-79.652 c 6.88,0 12.69,0.336 17.45,1 4.76,0.668 8.62,1.98 11.57,3.93 2.95,1.953 5.09,4.648 6.42,8.086 1.32,3.445 1.97,7.937 1.97,13.484 0,5.547 -0.65,10.039 -1.97,13.484 -1.33,3.438 -3.47,6.11 -6.42,8.008 -2.95,1.902 -6.81,3.184 -11.57,3.852 -4.76,0.664 -10.57,1.004 -17.45,1.004 -6.87,0 -12.69,-0.34 -17.45,-1.004 -4.76,-0.668 -8.61,-1.95 -11.56,-3.852 -2.96,-1.898 -5.09,-4.57 -6.42,-8.008 -1.32,-3.445 -1.98,-7.937 -1.98,-13.484 0,-5.547 0.66,-10.039 1.98,-13.484 1.33,-3.438 3.46,-6.133 6.42,-8.086 2.95,-1.95 6.8,-3.262 11.56,-3.93 4.76,-0.664 10.58,-1 17.45,-1 z m 183.35,-26.809 c -1.76,0 -3.51,0.336 -5.23,1 -1.71,0.668 -3.63,2.188 -5.75,4.547 l -54.2,56.699 v -60.55 h -24.85 v 85.507 c 0,3.387 0.42,6.317 1.25,8.782 0.84,2.465 1.95,4.468 3.31,6.007 1.37,1.543 2.96,2.672 4.76,3.391 1.8,0.719 3.68,1.078 5.62,1.078 1.67,0 3.37,-0.332 5.09,-1.004 1.71,-0.664 3.68,-2.179 5.88,-4.543 l 54.2,-56.695 v 60.547 h 24.99 v -85.352 c 0,-3.39 -0.42,-6.316 -1.26,-8.781 -0.84,-2.469 -1.94,-4.496 -3.3,-6.086 -1.37,-1.594 -2.97,-2.75 -4.83,-3.469 -1.85,-0.718 -3.75,-1.078 -5.68,-1.078 z m 128.35,63.629 c 10.84,0 19.08,-2.336 24.72,-7.004 5.64,-4.679 8.46,-11.738 8.46,-21.191 0,-5.238 -0.7,-9.957 -2.11,-14.172 -1.41,-4.211 -3.66,-7.754 -6.75,-10.629 -3.09,-2.879 -7.02,-5.086 -11.83,-6.625 -4.8,-1.539 -10.55,-2.312 -17.25,-2.312 h -82.36 l 17.58,26.5 h 66.89 c 3.27,0 5.64,0.589 7.14,1.769 1.5,1.184 2.25,3.11 2.25,5.777 0,2.676 -0.75,4.575 -2.25,5.704 -1.5,1.129 -3.87,1.695 -7.14,1.695 h -48.11 c -5.73,0 -10.67,0.719 -14.82,2.16 -4.13,1.434 -7.57,3.438 -10.3,6.004 -2.73,2.566 -4.76,5.676 -6.08,9.324 -1.33,3.641 -1.99,7.676 -1.99,12.094 0,4.824 0.73,9.215 2.18,13.172 1.46,3.953 3.71,7.316 6.75,10.09 3.03,2.773 6.96,4.929 11.76,6.468 4.81,1.543 10.56,2.313 17.26,2.313 h 76.8 l -17.58,-26.805 h -61.34 c -3.17,0 -5.53,-0.515 -7.07,-1.543 -1.55,-1.027 -2.32,-2.879 -2.32,-5.547 0,-2.668 0.77,-4.543 2.32,-5.621 1.54,-1.078 3.9,-1.621 7.07,-1.621 h 48.12" /><path
         id="path98"
         style="fill:#202626;fill-opacity:1;fill-rule:evenodd;stroke:none"
         d="m 3894.31,597.875 36.08,-16.766 v -15.918 l -53.88,26.09 v 12.403 l 53.88,26.226 v -15.039 z m 98.86,50.984 -22.17,-92.004 h -14.87 l 22.32,92.004 z m 43.85,-14.218 v -77.786 h -17.13 v 77.786 h -14.95 v 14.218 h 47.45 v -14.218 z m 48.84,-0.621 v -21.997 h 17.33 V 597.184 H 4086 v -25.368 h 19.29 v -14.961 h -36.41 v 92.004 h 36.41 V 634.02 Z m 82.94,-55.27 c 0,-1.234 -0.05,-2.477 -0.15,-3.703 -0.1,-1.266 -0.3,-2.477 -0.59,-3.641 -0.21,-1.254 -0.59,-2.445 -1.1,-3.609 -0.58,-1.277 -1.33,-2.469 -2.18,-3.559 -1.62,-2.16 -4.26,-4.093 -6.52,-5.586 -3.73,-2.332 -8.6,-2.922 -12.9,-2.922 -4.27,0 -8.97,0.606 -12.77,2.793 -2.14,1.383 -4.64,3.18 -6.25,5.223 -1.8,2.465 -3.11,5.254 -3.45,8.324 -0.26,2.633 -0.43,5.285 -0.43,7.938 v 42.574 c 0,1.027 0.03,2.055 0.08,3.086 0.04,1.031 0.11,2.02 0.21,2.957 0,1.262 0.23,2.641 0.43,3.883 0.33,2.008 0.98,3.941 1.86,5.797 1.12,2.183 2.69,4.117 4.49,5.812 2.31,2.059 5.17,3.442 8.09,4.391 2.88,0.98 5.89,1.398 8.88,1.222 2.99,0 6.59,-0.21 9.32,-1.375 1.06,-0.394 2.08,-0.82 3.06,-1.343 0.87,-0.446 1.67,-0.949 2.4,-1.512 2.32,-1.621 4.13,-3.668 5.24,-6.238 1.03,-2.117 1.67,-4.328 1.97,-6.617 0.21,-1.102 0.31,-2.196 0.31,-3.321 0,-1.039 0,-2.09 0,-3.148 l -0.19,-8.262 h -16.63 l -0.17,10.656 c 0,0.289 0,0.59 0,0.879 0,0.844 0.15,-0.449 -0.13,1.16 0,0.704 -0.14,1.571 -0.53,2.278 -0.35,0.812 -1.01,1.496 -1.81,2.035 -0.86,0.699 -2.52,0.844 -3.57,0.844 -0.71,0 -1.95,-0.055 -2.67,-0.379 -1.35,-0.473 -0.14,0.058 -0.81,-0.344 -0.28,-0.172 -0.52,-0.309 -0.72,-0.426 -1.12,-0.828 -1.78,-1.804 -1.99,-3.137 -0.08,-0.789 -0.13,-1.554 -0.13,-2.343 0,-0.852 0,-1.707 0,-2.555 v -48.699 c 0,-0.434 0.02,-0.875 0.07,-1.32 0.05,-0.551 0.07,-1.118 0.07,-1.676 0,-1.192 0.56,-2.606 1.07,-3.66 0.67,-1.403 3.55,-1.528 4.83,-1.528 0.46,0 -0.48,-0.074 0.63,0.047 0.49,0.055 0.9,0.07 1.26,0.059 0.76,0.109 1.44,0.367 2.13,0.851 1.09,0.645 1.85,1.535 2.06,2.844 0.14,0.715 0.24,1.469 0.24,2.199 0,0.809 0,1.625 0,2.453 l 0.17,12.805 16.98,-0.324 z m 44.01,19.059 h -8.17 v -40.954 h -16.84 v 92.004 h 16.84 v -35.836 h 8.17 v 35.836 h 16.85 v -92.004 h -16.85 z m 106.91,-0.375 v -40.579 h -16.85 v 92.004 h 23.17 c 0.86,0 1.72,0 2.58,0 0.84,0 1.67,-0.043 2.49,-0.136 2.34,-0.215 4.73,-0.864 6.93,-1.571 3.92,-1.125 5.82,-4.789 6.77,-8.492 0.93,-3.734 0.9,-9.234 0.9,-13.082 0,-1.703 0,-3.41 0,-5.117 0,-1.824 -0.09,-3.594 -0.28,-5.301 0,-0.687 -0.06,-1.32 -0.16,-1.992 -0.11,-0.703 -0.28,-1.398 -0.47,-2.082 -0.15,-0.543 -0.28,-1.082 -0.38,-1.625 -0.13,-0.766 -0.38,-1.473 -0.74,-2.117 -0.86,-1.719 -2.06,-3.071 -3.59,-3.989 0.88,-0.671 1.64,-1.531 2.31,-2.48 1.4,-1.883 2.15,-4.043 2.44,-6.309 0.24,-1.296 0.31,-2.632 0.31,-3.949 0,-1.621 0,-3.246 0,-4.867 v -9.613 c 0,-3.196 -0.04,-6.934 0.4,-10.086 0.32,-2.196 1.14,-4.496 1.97,-6.543 l 1.09,-2.653 h -18.02 l -0.29,1.571 c -0.18,0.922 -0.36,1.844 -0.55,2.758 -0.16,0.742 -0.34,1.488 -0.55,2.242 -0.19,0.777 -0.34,1.59 -0.4,2.387 -0.05,0.527 -0.16,1.109 -0.33,1.746 -0.11,0.754 -0.17,1.57 -0.17,2.336 0,0.664 0,1.328 0,1.992 v 11.617 c 0,1.48 -0.04,2.965 -0.14,4.445 -0.08,1.477 -0.21,2.934 -0.39,4.348 -0.09,0.496 -0.18,0.961 -0.27,1.457 -0.08,0.394 -0.2,0.832 -0.37,1.305 -0.19,0.679 -0.54,1.226 -0.93,1.601 -0.95,0.602 -1.91,0.84 -3.07,0.774 z m 62.81,36.586 v -21.997 h 17.33 v -14.839 h -17.19 v -25.368 h 19.28 v -14.961 h -36.41 v 92.004 h 36.41 V 634.02 Z m 82.94,-55.27 c 0,-1.234 -0.05,-2.477 -0.15,-3.707 -0.11,-1.254 -0.31,-2.473 -0.59,-3.637 -0.21,-1.254 -0.59,-2.441 -1.1,-3.617 -0.58,-1.269 -1.34,-2.461 -2.18,-3.551 -1.61,-2.16 -4.27,-4.093 -6.52,-5.586 -3.73,-2.328 -8.6,-2.922 -12.91,-2.922 -4.27,0 -8.95,0.606 -12.76,2.793 -2.14,1.387 -4.63,3.176 -6.25,5.223 -1.81,2.461 -3.1,5.25 -3.45,8.317 -0.26,2.636 -0.43,5.292 -0.43,7.945 v 42.574 c 0,1.027 0.03,2.055 0.08,3.09 0.05,1.027 0.11,2.016 0.21,2.949 0,1.266 0.23,2.645 0.44,3.887 0.32,2.008 0.96,3.941 1.85,5.797 1.12,2.183 2.69,4.117 4.49,5.812 2.3,2.059 5.18,3.442 8.08,4.391 2.89,0.98 5.9,1.398 8.89,1.222 2.99,0 6.59,-0.21 9.33,-1.378 1.05,-0.391 2.07,-0.821 3.06,-1.34 0.86,-0.446 1.67,-0.949 2.4,-1.512 2.31,-1.621 4.13,-3.668 5.22,-6.234 1.04,-2.121 1.68,-4.328 1.98,-6.621 0.2,-1.106 0.31,-2.196 0.31,-3.321 0,-1.039 0,-2.09 0,-3.148 l -0.19,-8.262 h -16.63 l -0.17,10.656 c 0,0.289 0,0.59 0,0.879 0,0.844 0.15,-0.449 -0.13,1.16 0,0.704 -0.14,1.567 -0.53,2.274 -0.35,0.816 -1.01,1.496 -1.8,2.039 -0.87,0.699 -2.52,0.844 -3.58,0.844 -0.73,0 -1.94,-0.055 -2.68,-0.379 -1.33,-0.469 -0.11,0.062 -0.81,-0.352 -0.29,-0.168 -0.52,-0.312 -0.72,-0.422 -1.12,-0.824 -1.78,-1.8 -1.98,-3.136 -0.08,-0.786 -0.13,-1.551 -0.13,-2.34 0,-0.852 0,-1.707 0,-2.555 v -48.699 c 0,-0.442 0.02,-0.883 0.06,-1.324 0.05,-0.555 0.08,-1.114 0.08,-1.672 0,-1.196 0.56,-2.598 1.06,-3.66 0.69,-1.407 3.55,-1.528 4.84,-1.528 0.45,0 -0.46,-0.074 0.62,0.047 0.49,0.055 0.92,0.07 1.27,0.059 0.75,0.109 1.43,0.367 2.13,0.851 1.09,0.653 1.85,1.543 2.06,2.844 0.15,0.719 0.24,1.469 0.24,2.199 0,0.809 0,1.625 0,2.453 l 0.17,12.805 16.99,-0.324 z m 36.12,18.684 v -40.579 h -16.84 v 92.004 h 23.16 c 0.86,0 1.73,0 2.59,0 0.84,0 1.67,-0.043 2.48,-0.136 2.34,-0.215 4.73,-0.864 6.93,-1.571 3.93,-1.125 5.82,-4.789 6.78,-8.492 0.93,-3.73 0.89,-9.238 0.89,-13.082 0,-1.703 0,-3.41 0,-5.117 0,-1.82 -0.09,-3.594 -0.28,-5.297 0,-0.691 -0.05,-1.324 -0.16,-1.992 -0.1,-0.707 -0.27,-1.402 -0.46,-2.094 -0.16,-0.535 -0.29,-1.082 -0.39,-1.629 -0.13,-0.754 -0.38,-1.457 -0.73,-2.097 -0.86,-1.727 -2.06,-3.079 -3.6,-4 0.89,-0.668 1.65,-1.528 2.32,-2.477 1.4,-1.883 2.15,-4.047 2.44,-6.309 0.24,-1.296 0.31,-2.632 0.31,-3.949 0,-1.621 0,-3.246 0,-4.867 v -9.613 c 0,-3.196 -0.05,-6.934 0.4,-10.086 0.32,-2.196 1.13,-4.496 1.97,-6.543 l 1.08,-2.653 h -18.02 l -0.29,1.571 c -0.18,0.922 -0.36,1.844 -0.55,2.762 -0.16,0.738 -0.33,1.488 -0.55,2.238 -0.18,0.777 -0.33,1.59 -0.4,2.387 -0.04,0.527 -0.15,1.117 -0.32,1.746 -0.11,0.754 -0.17,1.57 -0.17,2.336 0,0.664 0,1.328 0,1.992 v 11.617 c 0,1.48 -0.05,2.965 -0.14,4.441 -0.09,1.481 -0.22,2.938 -0.4,4.36 -0.09,0.496 -0.18,0.965 -0.27,1.457 -0.07,0.398 -0.2,0.832 -0.37,1.293 -0.18,0.683 -0.53,1.23 -0.93,1.605 -0.94,0.598 -1.9,0.84 -3.07,0.774 z m 90.77,-17.301 c 0,-0.438 0,-0.879 0,-1.313 0,-1.027 -0.15,-2.058 -0.3,-2.996 -0.08,-1.144 -0.2,-2.25 -0.35,-3.379 -0.16,-1.121 -0.38,-2.23 -0.69,-3.328 -0.87,-3.039 -2.38,-5.785 -4.76,-7.902 -1.91,-1.707 -4.08,-3.027 -6.49,-3.871 -1.98,-0.723 -4.02,-1.297 -6.07,-1.586 -0.91,-0.164 -1.84,-0.278 -2.77,-0.278 -0.58,0 -1.16,0 -1.74,0 -1.38,0 -2.83,0.196 -4.19,0.391 -1.92,0.277 -3.84,0.746 -5.78,1.387 -0.94,0.418 -1.92,0.898 -2.84,1.394 -0.98,0.536 -1.97,1.188 -2.96,1.907 -2,1.777 -3.47,4.007 -4.44,6.441 -0.65,1.457 -1.09,2.977 -1.39,4.543 -0.39,2.117 -0.45,4.437 -0.45,6.586 v 70.73 h 16.57 v -70.105 c 0,-1.16 0.08,-2.313 0.25,-3.449 0.2,-1.313 0.43,-2.578 0.67,-3.805 0.63,-2.25 2.93,-2.551 4.98,-2.551 0.45,0 -0.48,-0.074 0.62,0.051 0.48,0.055 0.91,0.066 1.28,0.063 0.68,0.089 1.36,0.328 1.96,0.863 1,0.715 1.59,1.683 1.78,2.89 0.35,2.157 0.39,4.508 0.39,6.688 v 69.355 h 16.72 z m 36.54,-23.278 h -16.71 v 92.004 h 16.71 z m 48.14,77.786 v -77.786 h -17.12 v 77.786 h -14.96 v 14.218 h 47.45 v -14.218 z m 77.55,-29.231 -7.74,-48.555 h -14.33 l -7.61,48.262 v -48.262 h -16.02 v 92.004 h 22.12 l 8.9,-49.039 7.84,49.039 h 22.71 v -92.004 h -15.87 z m 54.23,28.61 v -21.997 h 17.33 v -14.839 h -17.19 v -25.368 h 19.28 v -14.961 h -36.4 v 92.004 h 36.4 V 634.02 Z m 51.93,-27.793 0.86,-49.372 h -16.04 v 92.004 h 17.38 l 11.96,-46.265 -0.44,46.265 h 16.17 v -92.004 h -17.84 z m 78.17,28.414 v -77.786 h -17.13 v 77.786 h -14.95 v 14.218 h 47.45 v -14.218 z m 77.86,-37.539 -36.08,16.757 v 16.043 l 53.87,-26.093 V 591.41 l -53.87,-26.219 v 14.911 z m -696.92,37.293 v -23.372 h 4.22 c 1.02,0 2.29,0.11 3.25,0.579 0.51,0.222 0.93,1.453 1.08,2 0.18,0.472 0.27,1.136 0.32,1.625 0.11,0.988 0.13,2.035 0.13,3.097 0.1,1.262 0.14,2.559 0.14,3.824 0,1.438 0,2.868 0,4.305 0,0.934 0,1.875 0,2.813 0,0.816 -0.09,1.675 -0.26,2.57 -0.04,0.406 -0.28,1.863 -0.7,2.238 -0.57,0.344 -2.84,0.344 -3.53,0.321 z m 181.87,0 v -23.372 h 4.22 c 1.02,0 2.3,0.11 3.26,0.579 0.5,0.222 0.92,1.461 1.08,2 0.17,0.468 0.26,1.136 0.32,1.632 0.1,0.985 0.13,2.032 0.13,3.09 0.1,1.262 0.14,2.559 0.14,3.824 0,1.438 0,2.868 0,4.305 0,0.934 0,1.875 0,2.813 0,0.808 -0.09,1.668 -0.27,2.566 -0.04,0.41 -0.27,1.871 -0.69,2.242 -0.57,0.344 -2.85,0.344 -3.53,0.321 h -4.66" /><path
         id="path100"
         style="fill:#2e3596;fill-opacity:1;fill-rule:evenodd;stroke:none"
         d="m 3866.14,712.387 h 1166.48 v -11.16 H 3866.14 v 11.16" /><path
         id="path102"
         style="fill:none;stroke:#e9e9e9;stroke-width:5.66930008;stroke-linecap:butt;stroke-linejoin:miter;stroke-miterlimit:22.92560005;stroke-dasharray:none;stroke-opacity:1"
         d="m 853.398,1650.12 v 0 c 449.642,0 817.532,-367.89 817.532,-817.538 v 0 c 0,-449.644 -367.89,-817.5351 -817.532,-817.5351 v 0 C 403.754,15.0469 35.8633,382.938 35.8633,832.582 v 0 c 0,449.648 367.8907,817.538 817.5347,817.538 z" /><path
         id="path104"
         style="fill:none;stroke:#e9e9e9;stroke-width:5.66930008;stroke-linecap:butt;stroke-linejoin:miter;stroke-miterlimit:22.92560005;stroke-dasharray:none;stroke-opacity:1"
         d="m 2634.16,1644.43 v 0 c 449.65,0 817.54,-367.89 817.54,-817.535 v 0 C 3451.7,377.246 3083.81,9.35938 2634.16,9.35938 v 0 c -449.64,0 -817.53,367.88662 -817.53,817.53562 v 0 c 0,449.645 367.89,817.535 817.53,817.535 z" /><path
         id="path106"
         style="fill:none;stroke:#e9e9e9;stroke-width:5.66930008;stroke-linecap:butt;stroke-linejoin:miter;stroke-miterlimit:22.92560005;stroke-dasharray:none;stroke-opacity:1"
         d="m 4449.09,1628.01 v 0 c 434.37,0 789.76,-355.4 789.76,-789.768 v 0 c 0,-434.371 -355.39,-789.7654 -789.76,-789.7654 v 0 c -434.38,0 -789.77,355.3944 -789.77,789.7654 v 0 c 0,434.368 355.39,789.768 789.77,789.768 z" /></g></g></svg>